# Alias OBJ Model File
# Exported from SketchUp, (c) 2000-2012 Trimble Navigation Limited
# File units = meters

mtllib swamp.mtl

g Mesh1 Model

usemtl Color_F07
v 220.455 -22.96 -0
vt 0 -903.937
vn 1 0 -0
v 220.455 -1.4 -12.8727
vt 506.801 -55.1181
v 220.455 -1.4 4.53475e-16
vt -1.78533e-14 -55.1181
f 1/1/1 2/2/1 3/3/1

v 220.455 -22.96 -20
vt 787.402 -903.937
f 2/2/1 1/1/1 4/4/1

vt -8679.35 -8.32811e-13
vn -3.77536e-17 -1 -9.21315e-16
v 197.878 -22.96 -20
vt -7790.48 787.402
vt -8679.35 787.402
f 1/5/2 5/6/2 4/7/2

v 192.493 -22.96 -17.7553
vt -7578.46 699.027
f 1/5/2 6/8/2 5/6/2

v 188.945 -22.96 -15.5076
vt -7438.78 610.536
f 1/5/2 7/9/2 6/8/2

v 185.582 -22.96 -12.3687
vt -7306.4 486.955
f 1/5/2 8/10/2 7/9/2

v 183.288 -22.96 -9.33931
vt -7216.08 367.689
f 1/5/2 9/11/2 8/10/2

v 180.14 -22.96 -8.05634
vt -7092.11 317.179
f 1/5/2 10/12/2 9/11/2

v 176.64 -22.96 -8.05634
vt -6954.32 317.179
f 1/5/2 11/13/2 10/12/2

v 172.74 -22.96 -8.05634
vt -6800.77 317.179
f 1/5/2 12/14/2 11/13/2

v 130.547 -22.96 -0
vt -5139.66 -8.32811e-13
f 13/15/2 12/14/2 1/5/2

v 169.922 -22.96 -10.2968
vt -6689.84 405.388
f 13/15/2 14/16/2 12/14/2

v 158.781 -22.96 -20
vt -6251.23 787.402
f 13/15/2 15/17/2 14/16/2

v 130.547 -22.96 -20
vt -5139.66 787.402
f 15/17/2 13/15/2 16/18/2

vt -5139.66 -4.14265e-13
vn -5.62666e-17 -1 -4.5829e-16
v 126.81 -22.96 -17.52
vt -4992.53 689.764
f 13/19/3 17/20/3 16/18/3

v 123.093 -22.96 -12.7381
vt -4846.19 501.498
f 13/19/3 18/21/3 17/20/3

v 118.768 -22.96 -9.34049
vt -4675.91 367.736
f 13/19/3 19/22/3 18/21/3

v 99.268 -22.96 -9.34049
vt -3908.19 367.736
f 13/19/3 20/23/3 19/22/3

v 92.2651 -22.96 -0
vt -3632.49 -4.14265e-13
f 21/24/3 20/23/3 13/19/3

v 95.5839 -22.96 -12.7208
vt -3763.14 500.821
f 21/24/3 22/25/3 20/23/3

v 92.2651 -22.96 -20
vt -3632.49 787.402
f 22/25/3 21/24/3 23/26/3

v 46.8636 -22.96 -0
vt -1845.02 -1.95769e-13
vn 9.54036e-17 -1 -2.16573e-16
vt -3632.49 -1.95769e-13
f 24/27/4 23/26/4 21/28/4

v 46.8636 -22.96 -20
vt -1845.02 787.402
f 23/26/4 24/27/4 25/29/4

v 33.8417 -22.96 -0
vt -1332.35 0
vn 0 -1 -0
vt -1845.02 0
f 26/30/5 25/29/5 24/31/5

v 33.8417 -22.96 -20
vt -1332.35 787.402
f 26/30/5 27/32/5 25/29/5

v 25.5288 -22.96 5
vt -1005.07 -196.85
f 28/33/5 27/32/5 26/30/5

v 25.5288 -22.96 -26
vt -1005.07 1023.62
f 28/33/5 29/34/5 27/32/5

v 5.67051 -22.96 5
vt -223.248 -196.85
f 30/35/5 29/34/5 28/33/5

v 5.67051 -22.96 -26
vt -223.248 1023.62
f 30/35/5 31/36/5 29/34/5

v 0 -22.96 -0
vt 0 0
f 32/37/5 31/36/5 30/35/5

v 0 -22.96 -20
vt 0 787.402
f 31/36/5 32/37/5 33/38/5

vn -1 0 -0
v 0 3.80504 -20
vt -787.402 149.805
vt -787.402 -903.937
f 32/1/6 34/39/6 33/40/6

v 0 3.80504 -0
vt 0 149.805
f 34/39/6 32/1/6 35/41/6

vn -0.66137 0 0.75006
v 5.67051 3.80504 5
vt 297.641 149.805
f 32/1/7 36/42/7 35/41/7

vt 297.641 -903.937
f 36/42/7 32/1/7 30/43/7

vt 223.248 -903.937
vn 0 0 1
v 25.5288 3.80504 5
vt 1005.07 149.805
vt 223.248 149.805
f 30/44/8 37/45/8 36/46/8

vt 1005.07 -903.937
f 37/45/8 30/44/8 28/47/8

vt 759.819 -903.937
vn 0.515423 0 0.856936
v 33.8417 3.80504 -0
vt 1141.74 149.805
vt 759.819 149.805
f 28/48/9 38/49/9 37/50/9

vt 1141.74 -903.937
f 38/49/9 28/48/9 26/51/9

vt 1332.35 -903.937
v 46.8636 0 -0
vt 1845.02 0
vt 1332.35 149.805
f 26/52/8 39/53/8 38/54/8

vt 1845.02 -903.937
f 39/53/8 26/52/8 24/55/8

vn -6.78773e-19 -1.91969e-18 1
v 72.3556 -2 1.80478e-16
vt 2848.65 -78.7402
vt 1845.02 -2.40413e-33
f 24/55/10 40/56/10 39/57/10

v 83.884 -2 1.80478e-16
vt 3302.52 -78.7402
f 40/56/10 24/55/10 41/58/10

v 92.2651 2.27675e-16 -0
vt 3632.49 8.96357e-15
f 24/55/10 42/59/10 41/58/10

vt 3632.49 -903.937
f 42/59/10 24/55/10 21/60/10

v 130.547 0 -0
vt 5139.66 0
f 21/60/8 43/61/8 42/59/8

vt 5139.66 -903.937
f 43/61/8 21/60/8 13/62/8

vn -2.54029e-18 -8.59749e-18 1
v 190.292 -1.4 4.53475e-16
vt 7491.81 -55.1181
vt 5139.66 -1.12251e-31
f 13/62/11 44/63/11 43/64/11

vt 8679.35 -55.1181
f 13/62/11 3/65/11 44/63/11

vt 8679.35 -903.937
f 3/65/11 13/62/11 1/66/11

usemtl Color_H03
vt 8679.35 -6.84731e-28
vn 2.40965e-16 1 -3.23911e-16
v 190.292 -1.4 -3.18788
vt 7491.81 125.507
vt 7491.81 -6.24778e-28
f 3/67/12 45/68/12 44/69/12

v 191.476 -1.4 -6.03608
vt 7538.42 237.641
f 45/68/12 3/67/12 46/70/12

v 196.023 -1.4 -9.45861
vt 7717.45 372.386
f 46/70/12 3/67/12 47/71/12

v 204.106 -1.4 -12.8727
vt 8035.66 506.801
f 47/71/12 3/67/12 48/72/12

vt 8679.35 506.801
f 48/72/12 3/67/12 2/73/12

usemtl Color_F07
vn 8.83088e-17 3.23911e-16 1
v 204.106 -5.72662e-15 -12.8727
vt 8035.66 -6.12991e-14
vt 8035.66 -55.1181
f 2/65/13 49/74/13 48/75/13

v 220.455 -2.86331e-15 -12.8727
vt 8679.35 5.14296e-14
f 49/74/13 2/65/13 50/76/13

vt 506.801 -1.12729e-13
f 2/2/1 4/4/1 50/77/1

v 220.455 0 -20
vt 787.402 0
f 50/77/1 4/4/1 51/78/1

vt 8679.35 0
vt 7790.48 -903.937
f 51/79/8 5/80/8 4/66/8

v 197.878 0 -20
vt 7790.48 0
f 5/80/8 51/79/8 52/81/8

vt 7790.48 787.402
vn 4.49132e-17 1 -1.51215e-16
vt 8679.35 787.402
f 52/82/14 49/72/14 51/83/14

v 196.023 2.86262e-15 -9.45861
f 52/82/14 53/71/14 49/72/14

v 192.493 -2.31951e-24 -17.7553
vt 7578.46 699.027
f 54/84/14 53/71/14 52/82/14

v 191.476 1.15506e-14 -6.03608
f 54/84/14 55/70/14 53/71/14

v 190.292 5.77636e-15 -3.18788
f 54/84/14 56/68/14 55/70/14

v 188.945 8.09607e-22 -15.5076
vt 7438.78 610.536
f 57/85/14 56/68/14 54/84/14

v 190.292 2.8882e-15 -0
vt 7491.81 -6.80755e-29
f 57/85/14 58/86/14 56/68/14

v 185.582 2.20736e-19 -12.3687
vt 7306.4 486.955
f 59/87/14 58/86/14 57/85/14

v 183.288 5.8573e-17 -9.33931
vt 7216.08 367.689
f 60/88/14 58/86/14 59/87/14

v 180.14 5.77544e-15 -8.05634
vt 7092.11 317.179
f 61/89/14 58/86/14 60/88/14

v 176.64 5.77544e-15 -8.05634
vt 6954.32 317.179
f 62/90/14 58/86/14 61/89/14

v 172.74 5.77544e-15 -8.05634
vt 6800.77 317.179
f 63/91/14 58/86/14 62/90/14

v 130.547 0 -20
vt 5139.66 787.402
f 64/92/14 58/86/14 63/91/14

vt 5139.66 -3.49063e-29
f 58/86/14 64/92/14 43/93/14

v 126.81 0 -17.52
vt 4992.53 689.764
vn 4.48666e-17 1 2.25325e-17
vt 5139.66 5.19598e-30
f 65/94/15 43/95/15 64/92/15

v 123.093 -3.38727e-20 -12.7381
vt 4846.19 501.498
f 66/96/15 43/95/15 65/94/15

v 118.768 -3.435e-17 -9.34049
vt 4675.91 367.736
f 67/97/15 43/95/15 66/96/15

v 99.268 -3.435e-17 -9.34049
vt 3908.19 367.736
f 68/98/15 43/95/15 67/97/15

vt 3632.49 3.87426e-30
f 68/98/15 42/99/15 43/95/15

v 95.5839 5.80523e-15 -12.7208
vt 3763.14 500.821
f 69/100/15 42/99/15 68/98/15

v 92.2651 0 -20
vt 3632.49 787.402
f 42/99/15 69/100/15 70/101/15

vt -1105.41 2.12097e-13
vn 0.909894 4.53093e-18 -0.414841
vt -790.451 -903.937
vt -790.451 -1.64555e-14
f 69/102/16 23/103/16 70/104/16

vt -1105.41 -903.937
f 23/103/16 69/102/16 22/105/16

vt -2631.08 2.06681e-13
vn 0.676071 -7.14112e-17 -0.736837
vt -2434.23 -903.937
vt -2434.23 4.36585e-13
f 68/106/17 22/107/17 69/108/17

vt -2631.08 -903.937
f 22/107/17 68/106/17 20/109/17

vt -3908.19 1.39126e-14
vn 0 -4.15106e-17 -1
vt -4675.91 -903.937
vt -3908.19 -903.937
f 68/110/18 19/111/18 20/112/18

vt -4675.91 1.39126e-14
f 19/111/18 68/110/18 67/113/18

vt -3904.22 1.07577e-14
vn -0.617738 4.65896e-18 -0.786384
vt -4120.76 -903.937
vt -3904.22 -903.937
f 67/114/19 18/115/19 19/116/19

vt -4120.76 1.21087e-14
f 18/115/19 67/114/19 66/117/19

vt -3608.59 7.81083e-14
vn -0.789525 2.21999e-17 -0.613718
vt -3370.14 -903.937
vt -3370.14 7.8107e-14
f 65/118/20 18/119/20 66/120/20

vt -3608.59 -903.937
f 18/119/20 65/118/20 17/121/20

vt -4541.27 0
vn -0.552943 0 -0.833219
vt -4717.85 -903.937
vt -4541.27 -903.937
f 65/122/21 16/123/21 17/124/21

vt -4717.85 0
f 16/123/21 65/122/21 64/125/21

vt -5139.66 0
vn 0 0 -1
vt -6251.23 -903.937
vt -5139.66 -903.937
f 64/126/22 15/127/22 16/128/22

v 158.781 0 -20
vt -6251.23 0
f 15/127/22 64/126/22 71/129/22

v 169.922 5.73906e-15 -10.2968
vt 6689.84 405.388
vt 6251.23 787.402
f 64/92/14 72/130/14 71/131/14

f 64/92/14 63/91/14 72/130/14

vt 4984.03 -903.937
vn -0.622363 0 0.782729
vt 5125.76 2.2738e-13
vt 4984.03 2.25947e-13
f 14/132/23 63/133/23 72/134/23

vt 5125.76 -903.937
f 63/133/23 14/132/23 12/135/23

usemtl Color_M05
vn -4.64591e-16 -1 4.2272e-16
f 14/16/24 6/8/24 12/14/24

v 220.455 -22.96 -30.7216
vt -8679.35 1209.51
f 14/16/24 73/136/24 6/8/24

v 167.615 -22.96 -14.1603
vt -6599 557.494
f 74/137/24 73/136/24 14/16/24

v 163.442 -22.96 -18.1884
vt -6434.71 716.08
f 75/138/24 73/136/24 74/137/24

v 163.178 -22.96 -30.7216
vt -6424.31 1209.51
f 75/138/24 76/139/24 73/136/24

f 15/17/24 76/139/24 75/138/24

v 158.781 -22.96 -24.4
vt -6251.23 960.63
f 76/139/24 15/17/24 77/140/24

v 158.781 13.04 -20
vt -787.402 513.386
vt -960.63 -903.937
f 15/40/6 78/141/6 77/142/6

vt -787.402 0
f 78/141/6 15/40/6 71/143/6

usemtl Color_F07
vt 5738.06 -903.937
vn -0.362315 1.3671e-18 0.932056
vt 5541.21 4.09969e-15
vt 5541.21 -903.937
f 75/144/25 71/145/25 15/146/25

v 163.442 1.15871e-14 -18.1884
vt 5738.06 4.60286e-13
f 71/145/25 75/144/25 79/147/25

vt 4132.42 -903.937
vn -0.694498 0 0.719495
v 167.615 1.15508e-14 -14.1603
vt 4360.77 4.54755e-13
vt 4132.42 4.56186e-13
f 75/148/26 80/149/26 79/150/26

vt 4360.77 -903.937
f 80/149/26 75/148/26 74/151/26

f 14/16/2 75/138/2 74/137/2

f 14/16/2 15/17/2 75/138/2

vt 3081.99 -903.937
vn -0.858553 4.45839e-18 0.512724
vt 2904.83 4.81289e-13
vt 2904.83 -903.937
f 14/152/27 80/153/27 74/154/27

vt 3081.99 2.52481e-13
f 80/153/27 14/152/27 72/155/27

vt 6434.71 716.08
vt 6599 557.494
f 79/156/14 72/130/14 80/157/14

f 71/131/14 72/130/14 79/156/14

usemtl Color_M05
vt 5738.06 8.46316e-13
vn -0.362315 1.30095e-16 0.932056
vt 5541.21 513.386
vt 5541.21 3.9013e-13
f 79/158/28 78/159/28 71/160/28

v 163.442 13.04 -18.1884
vt 5738.06 513.386
f 78/159/28 79/158/28 81/161/28

vt 4132.42 9.50573e-13
vn -0.694498 9.91927e-17 0.719495
v 167.615 13.04 -14.1603
vt 4360.77 513.386
vt 4132.42 513.386
f 79/162/29 82/163/29 81/164/29

vt 4360.77 9.49142e-13
f 82/163/29 79/162/29 80/165/29

vt 2904.83 1.16182e-12
vn -0.858553 1.18806e-16 0.512724
v 169.922 13.04 -10.2968
vt 3081.99 513.386
vt 2904.83 513.386
f 80/166/30 83/167/30 82/168/30

vt 3081.99 9.33011e-13
f 83/167/30 80/166/30 72/169/30

vt 5125.76 1.35025e-12
vn -0.622363 2.50594e-16 0.782729
vt 4984.03 513.386
vt 4984.03 1.34881e-12
f 63/170/31 83/171/31 72/172/31

v 172.74 13.04 -8.05634
vt 5125.76 513.386
f 83/171/31 63/170/31 84/173/31

vt 6800.77 3.28785e-13
vn -4.93348e-32 3.19709e-16 1
v 176.64 13.04 -8.05634
vt 6954.32 513.386
vt 6800.77 513.386
f 63/174/32 85/175/32 84/176/32

vt 6954.32 3.28785e-13
f 85/175/32 63/174/32 62/177/32

usemtl Color_F07
vt 6800.77 -903.937
vt 6954.32 2.2738e-13
vt 6800.77 2.2738e-13
f 12/178/8 62/179/8 63/180/8

vt 6954.32 -903.937
f 62/179/8 12/178/8 11/181/8

usemtl Color_M05
f 12/14/24 6/8/24 11/13/24

f 11/13/24 6/8/24 7/9/24

usemtl Color_F07
vt 6776 -9.13193e-23
vn 0.53516 0 0.84475
vt 6610.65 -903.937
vt 6776 -903.937
f 54/182/33 7/183/33 6/184/33

vt 6610.65 3.18743e-20
f 7/183/33 54/182/33 57/185/33

usemtl Color_M05
v 192.493 13.04 -17.7553
vt 6776 513.386
vn 0.53516 1.19367e-16 0.84475
vt 6610.65 -4.13631e-13
vt 6776 -4.13631e-13
f 86/186/34 57/187/34 54/188/34

v 188.945 13.04 -15.5076
vt 6610.65 513.386
f 57/187/34 86/186/34 87/189/34

vn 4.64591e-16 1 -4.2272e-16
f 86/84/35 85/90/35 87/85/35

f 86/84/35 84/91/35 85/90/35

f 86/84/35 83/130/35 84/91/35

v 220.455 13.04 -30.7216
vt 8679.35 1209.51
f 88/190/35 83/130/35 86/84/35

f 88/190/35 82/157/35 83/130/35

f 88/190/35 81/156/35 82/157/35

v 163.178 13.04 -30.7216
vt 6424.31 1209.51
f 89/191/35 81/156/35 88/190/35

v 158.781 13.04 -24.4
vt 6251.23 960.63
f 90/192/35 81/156/35 89/191/35

f 81/156/35 90/192/35 78/131/35

vt -960.63 513.386
f 77/142/6 78/141/6 90/193/6

vt -4357.83 513.386
vn -0.820982 1.40067e-16 -0.570955
vt -4660.98 -903.937
vt -4357.83 -903.937
f 90/194/36 76/195/36 77/196/36

vt -4660.98 513.386
f 76/195/36 90/194/36 89/197/36

vt -6424.31 513.386
vn 0 -4.2272e-16 -1
vt -8679.35 -903.937
vt -6424.31 -903.937
f 89/198/37 73/199/37 76/200/37

vt -8679.35 513.386
f 73/199/37 89/198/37 88/201/37

v 220.455 13.04 -20
vt 787.402 513.386
vt 1209.51 -903.937
vt 1209.51 513.386
f 91/202/1 73/203/1 88/204/1

f 51/78/1 73/203/1 91/202/1

f 73/203/1 51/78/1 4/4/1

f 5/6/24 73/136/24 4/7/24

f 6/8/24 73/136/24 5/6/24

usemtl Color_F07
vt 7493.77 0
vn 0.384736 0 0.923027
vt 7264.06 -903.937
vt 7493.77 -903.937
f 52/205/38 6/206/38 5/207/38

vt 7264.06 -9.13193e-23
f 6/206/38 52/205/38 54/208/38

usemtl Color_M05
vt 7493.77 -2.90272e-13
vn 0.384736 1.27846e-16 0.923027
vt 7264.06 513.386
vt 7264.06 -2.90272e-13
f 52/209/39 86/210/39 54/211/39

v 197.878 13.04 -20
vt 7493.77 513.386
f 86/210/39 52/209/39 92/212/39

vt 7790.48 1.11884e-13
vn 2.23327e-31 1.42093e-16 1
vt 8679.35 513.386
vt 7790.48 513.386
f 52/213/40 91/214/40 92/215/40

vt 8679.35 1.11884e-13
f 91/214/40 52/213/40 51/216/40

f 88/190/35 92/82/35 91/83/35

f 88/190/35 86/84/35 92/82/35

v 180.14 13.04 -8.05634
f 87/85/35 85/90/35 93/89/35

vn -6.12557e-32 3.19709e-16 1
vt 7092.11 513.386
f 62/177/41 93/217/41 85/175/41

vt 7092.11 3.28785e-13
f 93/217/41 62/177/41 61/218/41

usemtl Color_F07
vt 7092.11 2.2738e-13
f 11/181/8 61/219/8 62/179/8

vt 7092.11 -903.937
f 61/219/8 11/181/8 10/220/8

usemtl Color_M05
f 11/13/24 7/9/24 10/12/24

f 10/12/24 7/9/24 8/10/24

usemtl Color_F07
vt 5854.33 3.18743e-20
vn 0.682383 0 0.730995
vt 5673.23 -903.937
vt 5854.33 -903.937
f 57/221/42 8/222/42 7/223/42

vt 5673.23 8.69039e-18
f 8/222/42 57/221/42 59/224/42

usemtl Color_M05
vt 5854.33 513.386
vn 0.682383 1.71402e-16 0.730995
vt 5673.23 -7.93548e-13
vt 5854.33 -7.93557e-13
f 87/225/43 59/226/43 57/227/43

v 185.582 13.04 -12.3687
vt 5673.23 513.386
f 59/226/43 87/225/43 94/228/43

f 87/85/35 93/89/35 94/87/35

v 183.288 13.04 -9.33931
f 94/87/35 93/89/35 95/88/35

vt 6687.5 -4.77552e-13
vn 0.377344 2.95887e-16 0.926073
vt 6821.36 513.386
vt 6687.5 513.386
f 61/229/44 95/230/44 93/231/44

vt 6821.36 -7.02626e-13
f 95/230/44 61/229/44 60/232/44

usemtl Color_F07
vt 6687.5 -903.937
vn 0.377344 1.07092e-18 0.926073
vt 6821.36 -2.4536e-16
vt 6687.5 2.24828e-13
f 10/233/45 60/234/45 61/235/45

vt 6821.36 -903.937
f 60/234/45 10/233/45 9/236/45

usemtl Color_M05
f 10/12/24 8/10/24 9/11/24

usemtl Color_F07
vt 4799.22 -903.937
vn 0.797196 0 0.603721
vt 4649.61 2.30603e-15
vt 4649.61 -903.937
f 8/237/46 60/238/46 9/239/46

vt 4799.22 8.69039e-18
f 60/238/46 8/237/46 59/240/46

usemtl Color_M05
vt 4799.22 -1.08463e-12
vn 0.797196 1.96114e-16 0.603721
vt 4649.61 513.386
vt 4649.61 -1.08233e-12
f 59/241/47 95/242/47 60/243/47

vt 4799.22 513.386
f 95/242/47 59/241/47 94/244/47

usemtl Color_F07
vt -3632.49 -903.937
vn 1.82578e-16 -3.47089e-17 -1
v 79.3664 -2 -20
vt -3124.66 -78.7402
vt -3632.49 2.73298e-14
f 23/245/48 96/246/48 70/247/48

v 63.9649 -2 -20
vt -2518.3 -78.7402
f 96/246/48 23/245/48 97/248/48

v 46.8636 0 -20
vt -1845.02 2.73298e-14
f 23/245/48 98/249/48 97/248/48

vt -1845.02 -903.937
f 98/249/48 23/245/48 25/250/48

vn 1.03087e-16 -5.33163e-17 -1
v 33.8417 3.80504 -20
vt -1332.35 149.805
vt -1845.02 4.19813e-14
f 25/250/49 99/251/49 98/252/49

vt -1332.35 -903.937
f 99/251/49 25/250/49 27/253/49

vt -619.518 -903.937
vn 0.585248 0 -0.810855
v 25.5288 3.80504 -26
vt -215.893 149.805
vt -619.518 149.805
f 27/254/50 100/255/50 99/256/50

vt -215.893 -903.937
f 100/255/50 27/254/50 29/257/50

vt -1005.07 -903.937
v 5.67051 3.80504 -26
vt -223.248 149.805
vt -1005.07 149.805
f 29/258/22 101/259/22 100/260/22

vt -223.248 -903.937
f 101/259/22 29/258/22 31/261/22

vt -572.268 -903.937
vn -0.726781 4.42763e-18 -0.686869
vt -897.291 149.805
vt -897.291 -903.937
f 33/262/51 101/263/51 31/264/51

v 0 -2.05 -20
vt -572.268 -80.7087
f 102/265/51 101/263/51 33/262/51

vt -572.268 149.805
f 101/263/51 102/265/51 34/266/51

vt -787.402 -80.7087
f 33/40/6 34/39/6 102/267/6

vn 0 1 -0
vt 223.248 -196.85
vt 223.248 1023.62
f 34/38/52 36/268/52 101/269/52

f 36/268/52 34/38/52 35/37/52

vt 1005.07 -196.85
f 101/269/52 36/268/52 37/270/52

vt 1005.07 1023.62
f 101/269/52 37/270/52 100/271/52

vt 1332.35 787.402
f 100/271/52 37/270/52 99/272/52

vt 1332.35 0
f 99/272/52 37/270/52 38/273/52

vt 0 -1770.97
vn 0.280475 0.959861 -0
vt 787.402 -1236.86
vt 0 -1236.86
f 39/274/53 99/275/53 38/276/53

vt 787.402 -1770.97
f 99/275/53 39/274/53 98/277/53

v 64.6556 1.0367e-18 -0
vt 2545.5 -1.74374e-29
vn 9.6012e-17 1 -7.13365e-17
vt 1845.02 787.402
vt 1845.02 -1.26369e-29
f 103/278/54 98/279/54 39/280/54

v 63.9649 0 -20
vt 2518.3 787.402
f 98/279/54 103/278/54 104/281/54

v 64.6469 -5.77489e-15 -14.9458
vt 2545.15 588.417
f 104/281/54 103/278/54 105/282/54

v 64.6556 1.25133e-18 -4.0151
vt 2545.5 158.075
f 105/282/54 103/278/54 106/283/54

vt -7.10543e-15 -2776.95
vn 0.251398 0.967884 -0
vt 158.075 -2463.75
vt 0 -2463.75
f 40/284/55 106/285/55 103/286/55

v 72.3556 -2 -4.0151
vt 158.075 -2776.95
f 106/285/55 40/284/55 107/287/55

vt 3302.52 -1.23732e-15
vn 1.13976e-16 1 -7.4525e-17
vt 2848.65 158.075
vt 2848.65 -1.23732e-15
f 41/288/56 107/289/56 40/290/56

v 80.1271 -2 -13.9476
vt 3154.61 549.119
f 107/289/56 41/288/56 108/291/56

v 82.4133 -2 -9.84116
vt 3244.62 387.447
f 108/291/56 41/288/56 109/292/56

v 83.884 -2 -4.02419
vt 3302.52 158.433
f 109/292/56 41/288/56 110/293/56

v 83.884 2.0394e-19 -0
vt 0 8.02914e-18
vt -158.433 -78.7402
vt 7.10543e-15 -78.7402
f 111/294/6 110/295/6 41/296/6

v 83.884 -5.77529e-15 -4.02419
vt -158.433 -2.27374e-13
f 110/295/6 111/294/6 112/297/6

vt 3632.49 -5.54509e-29
vn -3.07076e-16 1 5.01144e-17
vt 3302.52 -5.08219e-29
f 42/298/57 112/293/57 111/299/57

f 70/101/57 112/293/57 42/298/57

v 82.4133 -5.77532e-15 -9.84116
f 70/101/57 113/292/57 112/293/57

v 80.1271 -5.80076e-15 -13.9476
f 70/101/57 114/291/57 113/292/57

v 79.3664 0 -20
vt 3124.66 787.402
f 114/291/57 70/101/57 115/300/57

vt -3124.66 2.73298e-14
f 70/247/48 96/246/48 115/301/48

vt -151.44 -78.7402
vn -0.992194 -1.23106e-17 0.124704
vt -391.598 -3.93751e-14
vt -391.598 -78.7402
f 108/302/58 115/303/58 96/304/58

vt -151.44 -2.67752e-13
f 115/303/58 108/302/58 114/305/58

vt 1239.8 -78.7402
vn -0.873714 0 0.48644
vt 1054.76 -2.28377e-13
vt 1054.76 -78.7402
f 109/306/59 114/307/59 108/308/59

vt 1239.8 -2.27375e-13
f 114/307/59 109/306/59 113/309/59

vt 655.889 -78.7402
vn -0.969495 0 0.245112
vt 419.668 -2.27375e-13
vt 419.668 -78.7402
f 110/310/60 113/311/60 109/312/60

vt 655.889 -2.27374e-13
f 113/311/60 110/310/60 112/313/60

f 107/289/56 108/291/56 96/300/56

v 70.7421 -2 -8.53576
vt 2785.12 336.053
f 96/300/56 116/314/56 107/289/56

v 66.8228 -2 -11.9532
vt 2630.82 470.6
f 96/300/56 117/315/56 116/314/56

v 64.6469 -2 -14.9458
f 96/300/56 118/282/56 117/315/56

f 118/282/56 96/300/56 97/281/56

vt 443.6 -78.7402
vn 0.99102 5.4608e-19 -0.133713
vt 242.813 -2.28778e-13
vt 242.813 -78.7402
f 97/316/61 105/317/61 118/318/61

vt 443.6 -1.42034e-15
f 105/317/61 97/316/61 104/319/61

vt -2518.3 2.73298e-14
f 97/248/48 98/249/48 104/320/48

v 66.8228 5.17969e-18 -11.9532
vt -1166.53 -8.92019e-14
vn 0.808798 3.71819e-17 -0.588087
vt -1020.86 -78.7402
vt -1020.86 -3.16764e-13
f 119/321/62 118/322/62 105/323/62

vt -1166.53 -78.7402
f 118/322/62 119/321/62 117/324/62

v 70.7421 -5.75169e-15 -8.53576
vt -1878.31 -2.42758e-13
vn 0.65721 7.82932e-18 -0.753708
vt -1673.58 -78.7402
vt -1673.58 -1.611e-14
f 120/325/63 117/326/63 119/327/63

vt -1878.31 -78.7402
f 117/326/63 120/325/63 116/328/63

v 72.3556 1.25133e-18 -4.0151
vt -808.739 -1.1795e-13
vn 0.941803 4.31284e-17 -0.336165
vt -619.763 -78.7402
vt -619.763 -3.44444e-13
f 121/329/64 116/330/64 120/331/64

vt -808.739 -78.7402
f 116/330/64 121/329/64 107/332/64

vt 2545.5 4.9265e-17
vt 2848.65 4.9265e-17
f 106/333/8 107/56/8 121/334/8

f 119/315/54 106/283/54 121/289/54

f 105/282/54 106/283/54 119/315/54

f 119/315/54 121/289/54 120/314/54

vt 3302.52 8.02914e-18
f 41/58/10 42/59/10 111/335/10

vt 2545.5 4.08149e-17
f 39/57/10 40/56/10 103/336/10

vt 7491.81 1.13709e-13
f 43/64/11 44/63/11 58/337/11

vt 125.507 -55.1181
vn 1 -2.40965e-16 -2.1831e-31
vt -1.63554e-27 1.91897e-12
f 45/338/65 58/339/65 44/3/65

vt 125.507 2.03268e-12
f 58/339/65 45/338/65 56/340/65

vt 3112.89 -55.1181
vn 0.923405 -9.81825e-17 0.383828
vt 2991.46 9.0191e-13
vt 2991.46 -55.1181
f 46/341/66 56/342/66 45/343/66

vt 3112.89 1.12924e-12
f 56/342/66 46/341/66 55/344/66

vt 6166.03 -55.1181
vn 0.601342 1.13899e-16 0.798992
vt 6390.11 -3.81997e-13
vt 6166.03 -3.99515e-14
f 46/345/67 53/346/67 55/347/67

vt 6390.11 -55.1181
f 53/346/67 46/345/67 47/348/67

vt 7254.12 -55.1181
vn 0.389119 2.04618e-16 0.921187
vt 7599.55 -7.69736e-13
vt 7254.12 -4.31577e-13
f 47/349/68 49/350/68 53/351/68

vt 7599.55 -55.1181
f 49/350/68 47/349/68 48/352/68

f 51/83/14 49/72/14 50/73/14

