{
  "asset": {
    "version": "2.0",
    "generator": "Sketchup glTF Exporter v1.2.6 by Centaur"
  },
  "scene": 0,
  "scenes": [
    {
      "nodes": [
        0
      ]
    }
  ],
  "samplers": [
    {
    }
  ],
  "nodes": [
    {
      "name": "root",
      "mesh": 0
    }
  ],
  "materials": [
    {
      "pbrMetallicRoughness": {
        "baseColorTexture": {
          "index": 0
        },
        "metallicFactor": 0.1,
        "roughnessFactor": 0.9
      },
      "name": "Material1"
    },
    {
      "pbrMetallicRoughness": {
        "baseColorTexture": {
          "index": 1
        },
        "metallicFactor": 0.1,
        "roughnessFactor": 0.9
      },
      "name": "Color M05"
    },
    {
      "pbrMetallicRoughness": {
        "baseColorTexture": {
          "index": 2
        },
        "metallicFactor": 0.1,
        "roughnessFactor": 0.9
      },
      "name": "Material5"
    },
    {
      "pbrMetallicRoughness": {
        "baseColorFactor": [
          0.0,
          0.0,
          0.0,
          1.0
        ],
        "metallicFactor": 0.1,
        "roughnessFactor": 0.9
      },
      "name": "Material3"
    },
    {
      "pbrMetallicRoughness": {
        "baseColorFactor": [
          0.2176,
          0.2176,
          0.2176,
          1.0
        ],
        "metallicFactor": 0.1,
        "roughnessFactor": 0.9
      },
      "name": "default material",
      "doubleSided": true
    },
    {
      "pbrMetallicRoughness": {
        "baseColorFactor": [
          0.0278,
          0.1734,
          0.2271,
          1.0
        ],
        "metallicFactor": 0.1,
        "roughnessFactor": 0.9
      },
      "name": "Color H03",
      "doubleSided": true
    }
  ],
  "images": [
    {
      "bufferView": 0,
      "mimeType": "image/png"
    },
    {
      "bufferView": 1,
      "mimeType": "image/png"
    },
    {
      "bufferView": 2,
      "mimeType": "image/png"
    }
  ],
  "textures": [
    {
      "source": 0,
      "sampler": 0
    },
    {
      "source": 1,
      "sampler": 0
    },
    {
      "source": 2,
      "sampler": 0
    }
  ],
  "meshes": [
    {
      "primitives": [
        {
          "attributes": {
            "POSITION": 2,
            "NORMAL": 3,
            "TEXCOORD_0": 4
          },
          "indices": 5,
          "mode": 4,
          "material": 0
        },
        {
          "attributes": {
            "POSITION": 2,
            "NORMAL": 3,
            "TEXCOORD_0": 4
          },
          "indices": 6,
          "mode": 4,
          "material": 1
        },
        {
          "attributes": {
            "POSITION": 2,
            "NORMAL": 3,
            "TEXCOORD_0": 4
          },
          "indices": 7,
          "mode": 4,
          "material": 2
        },
        {
          "attributes": {
            "POSITION": 0,
            "NORMAL": 1
          },
          "indices": 8,
          "mode": 4,
          "material": 3
        },
        {
          "attributes": {
            "POSITION": 0,
            "NORMAL": 1
          },
          "indices": 9,
          "mode": 4,
          "material": 4
        },
        {
          "attributes": {
            "POSITION": 0,
            "NORMAL": 1
          },
          "indices": 10,
          "mode": 4,
          "material": 5
        }
      ]
    }
  ],
  "accessors": [
    {
      "bufferView": 3,
      "componentType": 5126,
      "count": 161,
      "type": "VEC3",
      "min": [
        -181.45392326605477,
        -49.23902688496115,
        -60.56695685744253
      ],
      "max": [
        264.80870139402793,
        98.98286712307511,
        55.73661445348022
      ]
    },
    {
      "bufferView": 4,
      "componentType": 5126,
      "count": 161,
      "type": "VEC3",
      "min": [
        -1.0,
        -6.123233995736766e-17,
        -1.0
      ],
      "max": [
        1.0,
        1.0,
        1.0
      ]
    },
    {
      "bufferView": 5,
      "componentType": 5126,
      "count": 1257,
      "type": "VEC3",
      "min": [
        -181.45392326605477,
        -52.56181042004607,
        -60.56695685744253
      ],
      "max": [
        425.40510749059393,
        98.98286712307511,
        55.73661445348022
      ]
    },
    {
      "bufferView": 6,
      "componentType": 5126,
      "count": 1257,
      "type": "VEC3",
      "min": [
        -1.0,
        -0.9803230114516396,
        -1.0
      ],
      "max": [
        1.0,
        1.0,
        1.0
      ]
    },
    {
      "bufferView": 7,
      "componentType": 5126,
      "count": 1257,
      "type": "VEC2",
      "min": [
        -18.360874633854255,
        -16.0002686872601
      ],
      "max": [
        18.7664552814346,
        19.061502400438673
      ]
    },
    {
      "bufferView": 9,
      "componentType": 5123,
      "count": 1164,
      "type": "SCALAR"
    },
    {
      "bufferView": 9,
      "componentType": 5123,
      "count": 783,
      "type": "SCALAR",
      "byteOffset": 2328
    },
    {
      "bufferView": 9,
      "componentType": 5123,
      "count": 306,
      "type": "SCALAR",
      "byteOffset": 3894
    },
    {
      "bufferView": 8,
      "componentType": 5121,
      "count": 180,
      "type": "SCALAR"
    },
    {
      "bufferView": 8,
      "componentType": 5121,
      "count": 84,
      "type": "SCALAR",
      "byteOffset": 180
    },
    {
      "bufferView": 8,
      "componentType": 5121,
      "count": 69,
      "type": "SCALAR",
      "byteOffset": 264
    }
  ],
  "bufferViews": [
    {
      "buffer": 0,
      "byteLength": 44420
    },
    {
      "buffer": 0,
      "byteOffset": 44420,
      "byteLength": 43853
    },
    {
      "buffer": 0,
      "byteOffset": 88273,
      "byteLength": 32308
    },
    {
      "buffer": 0,
      "byteOffset": 120588,
      "byteLength": 1932,
      "target": 34962,
      "byteStride": 12
    },
    {
      "buffer": 0,
      "byteOffset": 122520,
      "byteLength": 1932,
      "target": 34962,
      "byteStride": 12
    },
    {
      "buffer": 0,
      "byteOffset": 124452,
      "byteLength": 15084,
      "target": 34962,
      "byteStride": 12
    },
    {
      "buffer": 0,
      "byteOffset": 139536,
      "byteLength": 15084,
      "target": 34962,
      "byteStride": 12
    },
    {
      "buffer": 0,
      "byteOffset": 154624,
      "byteLength": 10056,
      "target": 34962,
      "byteStride": 8
    },
    {
      "buffer": 0,
      "byteOffset": 164680,
      "byteLength": 333,
      "target": 34963
    },
    {
      "buffer": 0,
      "byteOffset": 165014,
      "byteLength": 4506,
      "target": 34963
    }
  ],
  "buffers": [
    {
      "uri": "data:application/octet-stream;base64,",
      "byteLength": 169520
    }
  ]
}