{
  "asset": {
    "version": "2.0",
    "generator": "Sketchup glTF Exporter v1.2.6 by Centaur"
  },
  "scene": 0,
  "scenes": [
    {
      "nodes": [
        0
      ]
    }
  ],
  "samplers": [
    {
    }
  ],
  "nodes": [
    {
      "name": "root",
      "mesh": 0
    }
  ],
  "materials": [
    {
      "pbrMetallicRoughness": {
        "baseColorTexture": {
          "index": 0
        },
        "metallicFactor": 0.1,
        "roughnessFactor": 0.9
      },
      "name": "Material7"
    },
    {
      "pbrMetallicRoughness": {
        "baseColorTexture": {
          "index": 1
        },
        "metallicFactor": 0.1,
        "roughnessFactor": 0.9
      },
      "name": "Color M05"
    },
    {
      "pbrMetallicRoughness": {
        "baseColorTexture": {
          "index": 2
        },
        "metallicFactor": 0.1,
        "roughnessFactor": 0.9
      },
      "name": "Material1"
    }
  ],
  "images": [
    {
      "bufferView": 0,
      "mimeType": "image/png"
    },
    {
      "bufferView": 1,
      "mimeType": "image/png"
    },
    {
      "bufferView": 2,
      "mimeType": "image/png"
    }
  ],
  "textures": [
    {
      "source": 0,
      "sampler": 0
    },
    {
      "source": 1,
      "sampler": 0
    },
    {
      "source": 2,
      "sampler": 0
    }
  ],
  "meshes": [
    {
      "primitives": [
        {
          "attributes": {
            "POSITION": 0,
            "NORMAL": 1,
            "TEXCOORD_0": 2
          },
          "indices": 3,
          "mode": 4,
          "material": 0
        },
        {
          "attributes": {
            "POSITION": 0,
            "NORMAL": 1,
            "TEXCOORD_0": 2
          },
          "indices": 4,
          "mode": 4,
          "material": 1
        },
        {
          "attributes": {
            "POSITION": 0,
            "NORMAL": 1,
            "TEXCOORD_0": 2
          },
          "indices": 5,
          "mode": 4,
          "material": 2
        }
      ]
    }
  ],
  "accessors": [
    {
      "bufferView": 3,
      "componentType": 5126,
      "count": 86,
      "type": "VEC3",
      "min": [
        19.594448579398446,
        -49.23902688496115,
        -28.279703931911737
      ],
      "max": [
        81.5450827452382,
        43.27276953633559,
        48.73594559572555
      ]
    },
    {
      "bufferView": 4,
      "componentType": 5126,
      "count": 86,
      "type": "VEC3",
      "min": [
        -1.0,
        -0.9867409345339238,
        -0.5856260159822013
      ],
      "max": [
        0.08360719820954395,
        1.0,
        0.9964987889644173
      ]
    },
    {
      "bufferView": 5,
      "componentType": 5126,
      "count": 86,
      "type": "VEC2",
      "min": [
        -3.8301940898342024,
        -1.8848513024223723
      ],
      "max": [
        6.268280729476662,
        4.282601792330743
      ]
    },
    {
      "bufferView": 6,
      "componentType": 5121,
      "count": 72,
      "type": "SCALAR"
    },
    {
      "bufferView": 6,
      "componentType": 5121,
      "count": 48,
      "type": "SCALAR",
      "byteOffset": 72
    },
    {
      "bufferView": 6,
      "componentType": 5121,
      "count": 30,
      "type": "SCALAR",
      "byteOffset": 120
    }
  ],
  "bufferViews": [
    {
      "buffer": 0,
      "byteLength": 44816
    },
    {
      "buffer": 0,
      "byteOffset": 44816,
      "byteLength": 43853
    },
    {
      "buffer": 0,
      "byteOffset": 88669,
      "byteLength": 44420
    },
    {
      "buffer": 0,
      "byteOffset": 133092,
      "byteLength": 1032,
      "target": 34962,
      "byteStride": 12
    },
    {
      "buffer": 0,
      "byteOffset": 134124,
      "byteLength": 1032,
      "target": 34962,
      "byteStride": 12
    },
    {
      "buffer": 0,
      "byteOffset": 135160,
      "byteLength": 688,
      "target": 34962,
      "byteStride": 8
    },
    {
      "buffer": 0,
      "byteOffset": 135848,
      "byteLength": 150,
      "target": 34963
    }
  ],
  "buffers": [
    {
      "uri": "data:application/octet-stream;base64,",
      "byteLength": 135998
    }
  ]
}