{
  "asset": {
    "version": "2.0",
    "generator": "Sketchup glTF Exporter v1.2.6 by Centaur"
  },
  "scene": 0,
  "scenes": [
    {
      "nodes": [
        0
      ]
    }
  ],
  "samplers": [
    {
    }
  ],
  "nodes": [
    {
      "name": "root",
      "mesh": 0
    }
  ],
  "materials": [
    {
      "pbrMetallicRoughness": {
        "baseColorTexture": {
          "index": 0
        },
        "metallicFactor": 0.1,
        "roughnessFactor": 0.9
      },
      "name": "Material1"
    },
    {
      "pbrMetallicRoughness": {
        "baseColorTexture": {
          "index": 1
        },
        "metallicFactor": 0.1,
        "roughnessFactor": 0.9
      },
      "name": "Color M05"
    },
    {
      "pbrMetallicRoughness": {
        "baseColorTexture": {
          "index": 2
        },
        "metallicFactor": 0.1,
        "roughnessFactor": 0.9
      },
      "name": "Material7"
    },
    {
      "pbrMetallicRoughness": {
        "baseColorTexture": {
          "index": 3
        },
        "metallicFactor": 0.1,
        "roughnessFactor": 0.9
      },
      "name": "Material5"
    },
    {
      "pbrMetallicRoughness": {
        "baseColorFactor": [
          0.0,
          0.0,
          0.0,
          1.0
        ],
        "metallicFactor": 0.1,
        "roughnessFactor": 0.9
      },
      "name": "Material3"
    },
    {
      "pbrMetallicRoughness": {
        "baseColorFactor": [
          0.2176,
          0.2176,
          0.2176,
          1.0
        ],
        "metallicFactor": 0.1,
        "roughnessFactor": 0.9
      },
      "name": "default material",
      "doubleSided": true
    }
  ],
  "images": [
    {
      "bufferView": 0,
      "mimeType": "image/png"
    },
    {
      "bufferView": 1,
      "mimeType": "image/png"
    },
    {
      "bufferView": 2,
      "mimeType": "image/png"
    },
    {
      "bufferView": 3,
      "mimeType": "image/png"
    }
  ],
  "textures": [
    {
      "source": 0,
      "sampler": 0
    },
    {
      "source": 1,
      "sampler": 0
    },
    {
      "source": 2,
      "sampler": 0
    },
    {
      "source": 3,
      "sampler": 0
    }
  ],
  "meshes": [
    {
      "primitives": [
        {
          "attributes": {
            "POSITION": 2,
            "NORMAL": 3,
            "TEXCOORD_0": 4
          },
          "indices": 5,
          "mode": 4,
          "material": 0
        },
        {
          "attributes": {
            "POSITION": 2,
            "NORMAL": 3,
            "TEXCOORD_0": 4
          },
          "indices": 6,
          "mode": 4,
          "material": 1
        },
        {
          "attributes": {
            "POSITION": 2,
            "NORMAL": 3,
            "TEXCOORD_0": 4
          },
          "indices": 7,
          "mode": 4,
          "material": 2
        },
        {
          "attributes": {
            "POSITION": 2,
            "NORMAL": 3,
            "TEXCOORD_0": 4
          },
          "indices": 8,
          "mode": 4,
          "material": 3
        },
        {
          "attributes": {
            "POSITION": 0,
            "NORMAL": 1
          },
          "indices": 9,
          "mode": 4,
          "material": 4
        },
        {
          "attributes": {
            "POSITION": 0,
            "NORMAL": 1
          },
          "indices": 10,
          "mode": 4,
          "material": 5
        }
      ]
    }
  ],
  "accessors": [
    {
      "bufferView": 4,
      "componentType": 5126,
      "count": 177,
      "type": "VEC3",
      "min": [
        -860.3634356023477,
        -49.23902688496115,
        -60.56695685744253
      ],
      "max": [
        132.3944485793985,
        210.8740262267518,
        55.82992879215303
      ]
    },
    {
      "bufferView": 5,
      "componentType": 5126,
      "count": 177,
      "type": "VEC3",
      "min": [
        -1.0,
        -2.7446956664765062e-17,
        -0.44824281880905925
      ],
      "max": [
        1.0,
        1.0,
        1.0
      ]
    },
    {
      "bufferView": 6,
      "componentType": 5126,
      "count": 1800,
      "type": "VEC3",
      "min": [
        -860.3634356023477,
        -52.56181042004607,
        -60.56695685744253
      ],
      "max": [
        417.28415176029176,
        198.2845846362424,
        55.82992879215302
      ]
    },
    {
      "bufferView": 7,
      "componentType": 5126,
      "count": 1800,
      "type": "VEC3",
      "min": [
        -1.0,
        -0.9803230114516396,
        -0.946857586201029
      ],
      "max": [
        1.0,
        1.0,
        1.0
      ]
    },
    {
      "bufferView": 8,
      "componentType": 5126,
      "count": 1800,
      "type": "VEC2",
      "min": [
        -57.35756237348985,
        -41.772227503160146
      ],
      "max": [
        40.35039875640215,
        26.432724460728316
      ]
    },
    {
      "bufferView": 10,
      "componentType": 5123,
      "count": 1653,
      "type": "SCALAR"
    },
    {
      "bufferView": 10,
      "componentType": 5123,
      "count": 1020,
      "type": "SCALAR",
      "byteOffset": 3306
    },
    {
      "bufferView": 10,
      "componentType": 5123,
      "count": 423,
      "type": "SCALAR",
      "byteOffset": 5346
    },
    {
      "bufferView": 10,
      "componentType": 5123,
      "count": 42,
      "type": "SCALAR",
      "byteOffset": 6192
    },
    {
      "bufferView": 9,
      "componentType": 5121,
      "count": 375,
      "type": "SCALAR"
    },
    {
      "bufferView": 9,
      "componentType": 5121,
      "count": 21,
      "type": "SCALAR",
      "byteOffset": 375
    }
  ],
  "bufferViews": [
    {
      "buffer": 0,
      "byteLength": 44420
    },
    {
      "buffer": 0,
      "byteOffset": 44420,
      "byteLength": 43853
    },
    {
      "buffer": 0,
      "byteOffset": 88273,
      "byteLength": 44816
    },
    {
      "buffer": 0,
      "byteOffset": 133089,
      "byteLength": 32308
    },
    {
      "buffer": 0,
      "byteOffset": 165408,
      "byteLength": 2124,
      "target": 34962,
      "byteStride": 12
    },
    {
      "buffer": 0,
      "byteOffset": 167532,
      "byteLength": 2124,
      "target": 34962,
      "byteStride": 12
    },
    {
      "buffer": 0,
      "byteOffset": 169656,
      "byteLength": 21600,
      "target": 34962,
      "byteStride": 12
    },
    {
      "buffer": 0,
      "byteOffset": 191256,
      "byteLength": 21600,
      "target": 34962,
      "byteStride": 12
    },
    {
      "buffer": 0,
      "byteOffset": 212856,
      "byteLength": 14400,
      "target": 34962,
      "byteStride": 8
    },
    {
      "buffer": 0,
      "byteOffset": 227256,
      "byteLength": 396,
      "target": 34963
    },
    {
      "buffer": 0,
      "byteOffset": 227652,
      "byteLength": 6276,
      "target": 34963
    }
  ],
  "buffers": [
    {
      "uri": "data:application/octet-stream;base64,",
      "byteLength": 233928
    }
  ]
}