# Blender v3.2.0 OBJ File: ''
# www.blender.org
mtllib barrel_shard.mtl
o Barrel_Assets
v 0.542976 0.375760 -0.940463
v 0.542976 0.375760 -0.940463
v 0.940463 1.886871 -0.542976
v 0.940463 1.886871 -0.542976
v 0.576880 1.509094 -0.999186
v 0.999186 1.509094 -0.576880
v 0.592240 1.131316 -1.025789
v 1.025789 1.131316 -0.592240
v 0.576880 0.753538 -0.999186
v 0.999186 0.753538 -0.576880
vt 0.091695 0.196317
vt 0.159387 0.196317
vt 0.091695 0.243586
vt 0.091695 0.243586
vt 0.091695 0.150096
vt 0.159386 0.150096
vt 0.091695 0.103875
vt 0.159386 0.103875
vt 0.159386 0.056606
vt 0.159386 0.056606
vn 0.8589 0.1275 -0.4959
vn 0.5128 0.2216 -0.8294
vn 0.6735 0.1651 -0.6735
vn 0.8480 0.2018 -0.4900
vn 0.8660 -0.0000 -0.5000
vn 0.5000 0.0000 -0.8660
vn 0.8294 -0.2217 -0.5128
vn 0.4959 -0.1273 -0.8590
vn 0.6735 -0.1651 -0.6735
vn 0.4900 -0.2022 -0.8480
usemtl aiStandardSurface1SG
s 1
f 6/1/1 5/2/2 3/3/3 4/4/4
f 8/5/5 7/6/6 5/2/2 6/1/1
f 10/7/7 9/8/8 7/6/6 8/5/5
f 2/9/9 1/10/10 9/8/8 10/7/7
