# Blender v3.2.0 OBJ File: ''
# www.blender.org
mtllib barrel_shard1.mtl
o Barrel_Assets
v 0.866025 -0.002018 0.500000
v 0.940463 0.375760 0.542976
v 1.000000 -0.002018 -0.000000
v 1.085953 0.375760 0.000000
v 0.940463 1.886871 0.542976
v 0.866025 2.264649 0.500000
v 1.085953 1.886871 0.000000
v 1.000000 2.264649 0.000000
v 0.999186 1.509094 0.576880
v 1.153760 1.509094 0.000000
v 1.025789 1.131316 0.592240
v 1.184480 1.131316 0.000000
v 0.999186 0.753538 0.576880
v 1.153760 0.753538 0.000000
v 0.776368 2.264649 0.448236
v 0.896472 2.264649 0.000000
vt 0.778230 0.009678
vt 0.846355 0.009678
vt 0.846355 0.056607
vt 0.778231 0.056607
vt 0.778231 0.243586
vt 0.846355 0.243586
vt 0.846355 0.290515
vt 0.778231 0.290514
vt 0.778230 0.196317
vt 0.846355 0.196317
vt 0.778230 0.150096
vt 0.846355 0.150096
vt 0.778231 0.103875
vt 0.846355 0.103875
vt 0.973076 0.612856
vt 0.920861 0.659742
vt 0.915168 0.648484
vt 0.962517 0.605951
vn 0.8444 -0.2218 0.4875
vn 0.9751 -0.2218 -0.0000
vn 0.9803 -0.1977 -0.0000
vn 0.8488 -0.1986 0.4900
vn 0.8489 0.1979 0.4901
vn 0.9801 0.1986 -0.0000
vn 0.9751 0.2218 0.0000
vn 0.8444 0.2218 0.4875
vn 0.8590 0.1273 0.4959
vn 0.9918 0.1280 0.0000
vn 0.8660 -0.0000 0.5000
vn 1.0000 0.0000 0.0000
vn 0.8590 -0.1272 0.4959
vn 0.9919 -0.1273 0.0000
vn 0.0000 1.0000 0.0000
usemtl aiStandardSurface1SG
s 1
f 1/1/1 3/2/2 4/3/3 2/4/4
f 5/5/5 7/6/6 8/7/7 6/8/8
f 9/9/9 10/10/10 7/6/6 5/5/5
f 11/11/11 12/12/12 10/10/10 9/9/9
f 13/13/13 14/14/14 12/12/12 11/11/11
f 2/4/4 4/3/3 14/14/14 13/13/13
f 6/15/15 8/16/15 16/17/15 15/18/15
