# This file uses centimeters as units for non-parametric coordinates.

mtllib Rock_01.mtl
g default
v -0.663888 -0.018935 0.500000
v 0.500000 -0.018935 0.500000
v -0.285109 0.315530 0.195788
v 0.312536 0.360023 0.195788
v -0.195788 0.514681 -0.195788
v -0.500000 -0.018935 -0.500000
v 0.000020 0.544075 -0.195788
v 0.244147 0.485054 -0.033592
v 0.500000 -0.018935 -0.296655
v 0.296655 -0.018935 -0.500000
vt 0.301436 0.098890
vt 0.518650 0.017316
vt 0.495905 0.106337
vt 0.398951 0.135644
vt 0.496324 0.146557
vt 0.472465 0.177092
vt 0.444928 0.187518
vt 0.564096 0.239827
vt 0.394694 0.283555
vt 0.589274 0.179116
vn -0.016452 0.651357 0.758593
vn -0.016452 0.651357 0.758593
vn -0.016452 0.651357 0.758593
vn -0.016452 0.651357 0.758593
vn -0.088467 0.881857 0.463143
vn -0.088467 0.881857 0.463143
vn -0.088467 0.881857 0.463143
vn -0.088467 0.881857 0.463144
vn -0.088467 0.881857 0.463143
vn -0.014370 0.485173 -0.874300
vn -0.014370 0.485173 -0.874300
vn -0.014370 0.485173 -0.874300
vn -0.014370 0.485173 -0.874300
vn 0.893761 0.448518 -0.004917
vn 0.893760 0.448518 -0.004917
vn 0.893761 0.448518 -0.004917
vn 0.893761 0.448518 -0.004917
vn -0.784746 0.617424 -0.054430
vn -0.784746 0.617424 -0.054430
vn -0.784746 0.617424 -0.054430
vn -0.784746 0.617424 -0.054430
vn 0.553719 0.595928 -0.581606
vn 0.553719 0.595928 -0.581606
vn 0.553719 0.595928 -0.581606
vn 0.553719 0.595928 -0.581606
s off
g rock_01
usemtl aiStandardSurface1SG
f 1/1/1 2/2/2 4/3/3 3/4/4
f 3/4/5 4/3/6 8/5/7 7/6/8 5/7/9
f 5/7/10 7/6/11 10/8/12 6/9/13
f 2/2/14 9/10/15 8/5/16 4/3/17
f 6/9/18 1/1/19 3/4/20 5/7/21
f 7/6/22 8/5/23 9/10/24 10/8/25
