# This file uses centimeters as units for non-parametric coordinates.

mtllib Rock_02.mtl
g default
v 0.435578 -0.000601 1.116705
v -0.135136 0.613897 0.388651
v 0.120935 0.633463 0.355185
v -0.120935 0.883886 -0.244219
v 0.135136 0.903453 -0.277685
v -0.500000 -0.000601 -0.904150
v 0.427153 -0.000600 -1.198592
v 0.220265 0.479622 0.758383
v -0.220265 0.478304 0.740229
v -0.218321 0.385867 -0.550883
v 0.709049 -0.000600 0.446271
v 0.369732 0.378660 0.311278
v 0.128035 0.831014 0.038750
v -0.128035 0.811448 0.072216
v -0.500000 -0.000601 0.000000
v 0.793287 -0.000600 0.422750
v 0.393088 -0.000601 1.230548
v 0.187268 0.458450 0.888025
v 0.187414 0.479622 0.846401
v -0.282802 0.448106 0.834967
v -0.245677 0.450967 0.864828
v -0.251603 0.478304 0.824191
v -0.537960 -0.000601 0.991236
v -0.512529 -0.000601 1.024801
v -0.243908 0.444168 -0.063700
v -0.262378 0.418054 -0.112004
v -0.305330 0.408569 0.042970
v -0.270534 0.435269 0.016127
v -0.300011 0.405205 -0.004866
v -0.533713 -0.000601 0.090328
v -0.542490 -0.000601 0.138080
v 0.338213 0.386905 -0.953052
v 0.351668 0.409736 -0.911937
v 0.441915 0.356596 -0.907926
v 0.409073 0.365999 -0.949887
v 0.404230 0.393079 -0.900501
v 0.473890 -0.000600 -1.176366
v 0.506474 -0.000600 -1.130928
v 0.504740 0.367581 0.272027
v 0.457253 0.390139 0.274972
vt 0.675709 0.359091
vt 0.881442 0.354448
vt 0.900845 0.298432
vt 0.668217 0.419350
vt 0.549858 0.459348
vt 0.722067 0.263546
vt 0.803320 0.256666
vt 0.953792 0.049119
vt 0.780206 0.494913
vt 0.736520 0.382039
vt 0.586555 0.100808
vt 0.853652 0.419318
vt 0.689900 0.297543
vt 0.646281 0.467560
vt 0.905136 0.250041
vt 0.714424 0.256927
vt 0.594630 0.401656
vt 0.603795 0.398310
vt 0.540833 0.339298
vt 0.646019 0.020482
vt 0.609721 0.093429
vt 0.602567 0.098328
vt 0.857464 0.433704
vt 0.855695 0.440814
vt 0.788767 0.514123
vt 0.926155 0.452536
vt 0.697238 0.275456
vt 0.689754 0.278010
vt 0.608400 0.385038
vt 0.605425 0.377147
vt 0.639170 0.205367
vt 0.645163 0.201793
vt 0.600847 0.383614
vt 0.547892 0.324831
vt 0.552017 0.317837
vt 0.719567 0.248961
vt 0.728118 0.252447
vt 0.726804 0.244171
vt 0.799348 0.239212
vt 0.802538 0.248009
vt 0.821000 0.134180
vt 0.821588 0.142234
vt 0.817766 0.349205
vt 0.792904 0.062540
vt 0.630696 0.021877
vt 0.924966 0.436422
vt 0.694510 0.283576
vt 0.939442 0.549776
vt 0.923068 0.460748
vt 0.940374 0.309249
vt 0.451750 0.459086
vt 0.922194 0.370563
vt 0.946416 0.244105
vt 0.935235 0.145389
vn 0.004406 0.848212 0.529638
vn 0.004406 0.848212 0.529638
vn -0.021757 0.926646 0.375306
vn -0.016397 0.912746 0.408199
vn -0.345474 0.630227 -0.695314
vn -0.325854 0.631771 -0.703338
vn -0.331240 0.627593 -0.704562
vn -0.331240 0.627593 -0.704562
vn 0.758925 0.603311 0.245049
vn 0.752699 0.617217 0.229101
vn 0.808798 0.566283 0.158652
vn 0.750240 0.617848 0.235380
vn -0.068497 0.976933 0.202263
vn -0.016731 0.957829 0.286851
vn -0.020109 0.933388 0.358304
vn -0.020109 0.933388 0.358304
vn -0.362583 0.633170 -0.683834
vn -0.362583 0.633170 -0.683834
vn -0.358108 0.635913 -0.683647
vn 0.891413 0.451355 0.040772
vn 0.715807 0.659271 0.230178
vn 0.903098 0.428850 0.022402
vn 0.903098 0.428850 0.022402
vn -0.045418 0.974000 0.221949
vn -0.045418 0.974000 0.221949
vn -0.866715 0.497166 -0.040388
vn -0.900706 0.431344 -0.051689
vn -0.948656 0.316124 -0.010864
vn -0.944980 0.327035 0.007794
vn -0.960752 0.274752 -0.038300
vn -0.834091 0.550135 -0.040546
vn -0.843517 0.530587 -0.083404
vn 0.259162 0.525368 0.810446
vn 0.259162 0.525368 0.810446
vn 0.259162 0.525368 0.810446
vn 0.259162 0.525368 0.810446
vn 0.259162 0.525368 0.810446
vn 0.774377 0.562855 0.289023
vn 0.774377 0.562855 0.289023
vn 0.774377 0.562855 0.289023
vn -0.915284 0.396442 0.071339
vn -0.915284 0.396442 0.071339
vn -0.035209 0.859767 0.509471
vn -0.035209 0.859767 0.509471
vn -0.050515 0.857329 0.512285
vn -0.322564 0.755953 0.569639
vn -0.856799 0.515650 0.000794
vn -0.659875 0.751063 -0.021661
vn -0.660639 0.749590 -0.040880
vn -0.850064 0.526605 -0.008823
vn -0.603112 0.556029 0.571916
vn -0.605818 0.552402 0.572569
vn -0.605818 0.552402 0.572569
vn -0.855793 0.456335 -0.243672
vn -0.867847 0.442965 -0.224997
vn -0.867548 0.497342 -0.003376
vn -0.150036 0.485362 0.861344
vn -0.150036 0.485362 0.861344
vn -0.150036 0.485362 0.861344
vn -0.150036 0.485362 0.861344
vn -0.867034 0.498244 0.002287
vn -0.046888 0.998871 -0.007658
vn -0.002948 0.999995 -0.001100
vn -0.259353 0.964981 -0.039347
vn -0.259353 0.964981 -0.039347
vn 0.558569 0.827492 -0.057066
vn 0.485836 0.545511 -0.682921
vn 0.871511 0.475303 -0.120649
vn 0.566898 0.823216 -0.030694
vn 0.870185 0.480423 -0.109421
vn 0.883200 0.446656 -0.143026
vn 0.467237 0.529858 -0.707771
vn 0.268526 0.549827 -0.790939
vn 0.039244 0.999145 0.013006
vn 0.039244 0.999145 0.013006
vn 0.039244 0.999145 0.013006
vn 0.039244 0.999145 0.013006
vn 0.888543 0.444035 -0.115431
s 1
g rock_02
usemtl aiStandardSurface1SG
f 2/52/1 3/2/2 13/3/3 14/50/4
s 2
f 10/54/5 32/41/6 7/44/7 6/8/8
s 3
f 1/9/9 11/10/10 12/43/11 8/12/12
s 4
f 9/46/13 8/12/14 3/2/15 2/52/16
s 2
f 4/53/17 5/15/18 33/42/19 32/41/6 10/54/5
s 3
f 8/12/12 12/43/11 13/3/20 3/2/21
f 13/3/20 12/43/11 33/42/22 5/15/23
s 1
f 14/50/4 13/3/3 5/15/24 4/53/25
s 5
f 10/5/26 26/17/27 25/18/28 14/4/29 4/14/30
f 6/51/31 15/19/32 26/17/27 10/5/26
s off
f 11/45/33 16/20/34 39/21/35 40/22/36 12/11/37
s 3
f 1/9/9 8/12/12 19/23/38 18/24/39 17/25/40
s 5
f 25/18/28 9/13/41 2/1/42 14/4/29
s 6
f 18/24/43 19/23/44 22/26/45 21/49/46
s 5
f 20/28/47 22/47/48 28/29/49 27/30/50
s 6
f 21/27/46 20/28/51 23/31/52 24/32/53
s 5
f 25/18/28 26/17/27 29/33/54 28/29/49
f 27/30/50 29/33/54 30/34/55 31/35/56
s off
f 21/49/57 24/48/58 17/25/59 18/24/60
s 5
f 27/30/50 31/35/56 23/31/61 20/28/47
s 4
f 8/12/14 9/46/13 22/26/62 19/23/63
f 9/13/13 25/18/64 28/29/65 22/47/62
s 5
f 29/33/54 26/17/27 15/19/32 30/34/55
s 6
f 20/28/51 21/27/46 22/47/45
s 5
f 27/30/50 28/29/49 29/33/54
s 2
f 32/6/6 33/16/19 36/36/66 35/37/67
f 34/38/68 36/36/66 40/22/69 39/21/70
f 35/37/67 34/38/68 38/39/71 37/40/72
f 35/37/67 37/40/72 7/7/73 32/6/6
s off
f 40/22/74 36/36/75 33/16/76 12/11/77
s 2
f 34/38/68 39/21/70 16/20/78 38/39/71
f 34/38/68 35/37/67 36/36/66
