# This file uses centimeters as units for non-parametric coordinates.

mtllib Rock_04.mtl
g default
v 0.666309 0.000000 -0.427071
v 0.254507 0.000000 -0.691016
v -0.254508 0.000000 -0.691016
v -0.666309 0.000000 -0.427071
v -0.823603 0.000000 -0.000000
v -0.666309 0.000000 0.427071
v -0.254507 0.000000 0.691015
v 0.254507 0.000000 0.691015
v 0.666309 0.000000 0.427071
v 0.823603 0.000000 -0.000000
v 0.658106 0.117880 -0.421813
v 0.251374 0.117880 -0.682508
v -0.251374 0.117880 -0.682508
v -0.658106 0.117880 -0.421813
v -0.813463 0.117880 -0.000000
v -0.658106 0.117880 0.421813
v -0.251374 0.117880 0.682508
v 0.251374 0.117880 0.682508
v 0.658105 0.117880 0.421813
v 0.813463 0.117880 -0.000000
v 0.593686 0.342102 -0.392010
v 0.226768 0.342102 -0.627186
v -0.226768 0.342102 -0.627186
v -0.593686 0.342102 -0.392010
v -0.733836 0.342102 -0.011487
v -0.593686 0.342102 0.369036
v -0.226768 0.342102 0.604212
v 0.226768 0.342102 0.604212
v 0.593686 0.342102 0.369036
v 0.733836 0.342102 -0.011487
v 0.471152 0.526953 -0.346488
v 0.179964 0.526724 -0.533378
v -0.179964 0.526724 -0.533378
v -0.471152 0.526953 -0.346488
v -0.582376 0.527311 -0.044106
v -0.471152 0.527656 0.258260
v -0.179964 0.527863 0.445125
v 0.179964 0.527863 0.445125
v 0.471152 0.527656 0.258260
v 0.582375 0.527311 -0.044106
v 0.302498 0.653928 -0.271088
v 0.115544 0.653839 -0.391015
v -0.115544 0.653839 -0.391015
v -0.302498 0.653928 -0.271088
v -0.373908 0.654072 -0.077043
v -0.302498 0.654216 0.117002
v -0.115544 0.654304 0.236928
v 0.115544 0.654304 0.236928
v 0.302498 0.654216 0.117002
v 0.373908 0.654072 -0.077043
v 0.104234 0.720793 -0.158713
v 0.039814 0.720793 -0.200003
v -0.039814 0.720793 -0.200003
v -0.104234 0.720793 -0.158713
v -0.128840 0.720793 -0.091905
v -0.104234 0.720799 -0.025089
v -0.039814 0.720799 0.016201
v 0.039814 0.720799 0.016201
v 0.104234 0.720799 -0.025089
v 0.128840 0.720793 -0.091905
v 0.039814 0.733569 -0.091901
v -0.039814 0.733570 -0.091901
vt 0.324717 0.254472
vt 0.335549 0.238220
vt 0.395806 0.308204
vt 0.379693 0.319847
vt 0.431490 0.388996
vt 0.176882 0.599852
vt 0.091523 0.572020
vt 0.105288 0.557923
vt 0.036797 0.506676
vt 0.054073 0.498586
vt 0.014290 0.423469
vt 0.033780 0.422830
vt 0.030187 0.331514
vt 0.048501 0.339411
vt 0.086908 0.252507
vt 0.099728 0.267236
vt 0.168271 0.206568
vt 0.173511 0.225330
vt 0.255581 0.202088
vt 0.252455 0.220799
vt 0.305220 0.287658
vt 0.348223 0.343092
vt 0.197784 0.563412
vt 0.133918 0.531130
vt 0.089988 0.483725
vt 0.072023 0.422429
vt 0.085359 0.355446
vt 0.125576 0.296791
vt 0.184320 0.261724
vt 0.247932 0.259073
vt 0.288270 0.320348
vt 0.319166 0.363685
vt 0.213453 0.526324
vt 0.161891 0.505800
vt 0.126816 0.470382
vt 0.112790 0.423372
vt 0.122825 0.372161
vt 0.153121 0.327127
vt 0.197508 0.299885
vt 0.245582 0.297707
vt 0.270666 0.352124
vt 0.290077 0.381061
vt 0.221801 0.488166
vt 0.187558 0.478249
vt 0.163934 0.454863
vt 0.155264 0.423027
vt 0.161721 0.388508
vt 0.181928 0.358526
vt 0.210620 0.339844
vt 0.242439 0.337149
vt 0.247384 0.384632
vt 0.254209 0.395432
vt 0.254054 0.409142
vt 0.210868 0.443344
vt 0.230251 0.421364
vt 0.198909 0.418767
vt 0.212494 0.403287
vt 0.212394 0.390044
vt 0.223577 0.381289
vt 0.236129 0.379516
vt 0.233832 0.393979
vt 0.232435 0.406760
vt 0.297566 0.418522
vt 0.223237 0.446868
vt 0.336799 0.419418
vt 0.375426 0.412160
vt 0.413527 0.397581
vt 0.165658 0.616747
vt 0.201930 0.403084
vt 0.218882 0.415323
vt 0.202395 0.432799
vt 0.243226 0.418992
vn 0.759118 0.217419 -0.613571
vn 0.770474 0.081817 -0.632199
vn 0.275643 0.076482 -0.958213
vn 0.273913 0.192983 -0.942194
vn -0.275643 0.076482 -0.958213
vn -0.273913 0.192983 -0.942194
vn -0.770474 0.081817 -0.632199
vn -0.759118 0.217419 -0.613571
vn -0.996321 0.085703 -0.000000
vn -0.969353 0.245576 0.006938
vn -0.770474 0.081817 0.632199
vn -0.746039 0.253391 0.615807
vn -0.275643 0.076481 0.958213
vn -0.267276 0.249231 0.930831
vn 0.275643 0.076482 0.958213
vn 0.267276 0.249231 0.930832
vn 0.770474 0.081817 0.632199
vn 0.746039 0.253391 0.615807
vn 0.996321 0.085703 0.000001
vn 0.969353 0.245576 0.006938
vn 0.709976 0.404618 -0.576384
vn 0.260369 0.353765 -0.898364
vn -0.260369 0.353765 -0.898364
vn -0.709976 0.404618 -0.576384
vn -0.885934 0.463777 0.005679
vn -0.672111 0.488178 0.556730
vn -0.239882 0.488824 0.838754
vn 0.239882 0.488824 0.838754
vn 0.672111 0.488178 0.556730
vn 0.885934 0.463777 0.005680
vn 0.578596 0.654701 -0.486409
vn 0.218131 0.597212 -0.771853
vn -0.218131 0.597212 -0.771853
vn -0.578596 0.654701 -0.486409
vn -0.695738 0.718260 -0.007123
vn -0.517751 0.744028 0.422323
vn -0.184301 0.745497 0.640522
vn 0.184301 0.745497 0.640522
vn 0.517751 0.744028 0.422323
vn 0.695738 0.718260 -0.007122
vn 0.382299 0.862431 -0.331755
vn 0.145352 0.835688 -0.529621
vn -0.145352 0.835688 -0.529621
vn -0.382299 0.862431 -0.331755
vn -0.456012 0.889922 -0.009600
vn -0.341429 0.898073 0.277292
vn -0.122691 0.895900 0.426977
vn 0.122691 0.895900 0.426977
vn 0.341429 0.898073 0.277292
vn 0.456012 0.889922 -0.009600
vn 0.203269 0.963033 -0.176773
vn 0.074791 0.959153 -0.272821
vn -0.074791 0.959153 -0.272822
vn -0.203269 0.963033 -0.176773
vn -0.245755 0.969327 -0.003153
vn -0.191975 0.968213 0.160344
vn -0.068832 0.967375 0.243819
vn 0.068833 0.967375 0.243819
vn 0.191975 0.968213 0.160344
vn 0.245755 0.969327 -0.003153
vn 0.045513 0.998964 -0.000030
vn -0.045513 0.998964 -0.000030
s 1
g rock_04
usemtl aiStandardSurface1SG
f 11/1/1 1/2/2 2/3/3 12/4/4
f 12/4/4 2/3/3 3/5/5 13/67/6
f 13/6/6 3/68/5 4/7/7 14/8/8
f 14/8/8 4/7/7 5/9/9 15/10/10
f 15/10/10 5/9/9 6/11/11 16/12/12
f 16/12/12 6/11/11 7/13/13 17/14/14
f 17/14/14 7/13/13 8/15/15 18/16/16
f 18/16/16 8/15/15 9/17/17 19/18/18
f 19/18/18 9/17/17 10/19/19 20/20/20
f 11/1/1 20/20/20 10/19/19 1/2/2
f 21/21/21 11/1/1 12/4/4 22/22/22
f 22/22/22 12/4/4 13/67/6 23/66/23
f 23/23/23 13/6/6 14/8/8 24/24/24
f 24/24/24 14/8/8 15/10/10 25/25/25
f 25/25/25 15/10/10 16/12/12 26/26/26
f 26/26/26 16/12/12 17/14/14 27/27/27
f 27/27/27 17/14/14 18/16/16 28/28/28
f 28/28/28 18/16/16 19/18/18 29/29/29
f 29/29/29 19/18/18 20/20/20 30/30/30
f 21/21/21 30/30/30 20/20/20 11/1/1
f 31/31/31 21/21/21 22/22/22 32/32/32
f 32/32/32 22/22/22 23/66/23 33/65/33
f 33/33/33 23/23/23 24/24/24 34/34/34
f 34/34/34 24/24/24 25/25/25 35/35/35
f 35/35/35 25/25/25 26/26/26 36/36/36
f 36/36/36 26/26/26 27/27/27 37/37/37
f 37/37/37 27/27/27 28/28/28 38/38/38
f 38/38/38 28/28/28 29/29/29 39/39/39
f 39/39/39 29/29/29 30/30/30 40/40/40
f 31/31/31 40/40/40 30/30/30 21/21/21
f 41/41/41 31/31/31 32/32/32 42/42/42
f 42/42/42 32/32/32 33/65/33 43/63/43
f 43/43/43 33/33/33 34/34/34 44/44/44
f 44/44/44 34/34/34 35/35/35 45/45/45
f 45/45/45 35/35/35 36/36/36 46/46/46
f 46/46/46 36/36/36 37/37/37 47/47/47
f 47/47/47 37/37/37 38/38/38 48/48/48
f 48/48/48 38/38/38 39/39/39 49/49/49
f 49/49/49 39/39/39 40/40/40 50/50/50
f 41/41/41 50/50/50 40/40/40 31/31/31
f 51/51/51 41/41/41 42/42/42 52/52/52
f 52/52/52 42/42/42 43/63/43 53/53/53
f 53/64/53 43/43/43 44/44/44 54/54/54
f 54/54/54 44/44/44 45/45/45 55/71/55
f 55/71/55 45/45/45 46/46/46 56/56/56
f 56/56/56 46/46/46 47/47/47 57/69/57
f 57/69/57 47/47/47 48/48/48 58/58/58
f 58/58/58 48/48/48 49/49/49 59/59/59
f 59/59/59 49/49/49 50/50/50 60/60/60
f 51/51/51 60/60/60 50/50/50 41/41/41
f 61/61/61 62/62/62 57/57/57 58/58/58
f 52/52/52 53/53/53 62/62/62 61/61/61
f 55/55/55 56/70/56 57/57/57 62/62/62
f 54/72/54 55/55/55 62/62/62 53/53/53
f 60/60/60 51/51/51 52/52/52 61/61/61
f 58/58/58 59/59/59 60/60/60 61/61/61
