# Blender v3.0.1 OBJ File: 'lilypad.blend'
# www.blender.org
mtllib lilypad.mtl
o SketchUp_ID2
v -1.732051 0.000000 -1.000000
v -1.931851 0.250000 -0.517638
v -1.931851 0.000000 -0.517638
v -1.732051 0.250000 -1.000000
v -1.732051 0.250000 -1.000000
v -1.732051 0.000000 -1.000000
v -1.931851 0.250000 -0.517638
v -1.931851 0.000000 -0.517638
v -1.414213 0.000000 -1.414213
v -1.414213 0.250000 -1.414213
v -1.414213 0.250000 -1.414213
v -1.414213 0.000000 -1.414213
v -1.931851 0.250000 -0.517638
v -1.835259 0.250000 -0.491756
v -1.900000 0.250000 0.000000
v -1.732051 0.250000 -1.000000
v -1.645448 0.250000 -0.950000
v -1.414213 0.250000 -1.414213
v -1.343503 0.250000 -1.343503
v -1.000000 0.250000 -1.732051
v -0.950000 0.250000 -1.645448
v -0.517638 0.250000 -1.931852
v -0.491756 0.250000 -1.835259
v 0.000000 0.250000 -2.000000
v 0.491756 0.250000 -1.835259
v -0.000000 0.250000 -1.900000
v 0.517638 0.250000 -1.931851
v 0.950000 0.250000 -1.645448
v 1.000000 0.250000 -1.732051
v 1.343503 0.250000 -1.343503
v 1.414213 0.250000 -1.414213
v 1.645448 0.250000 -0.950000
v 1.732051 0.250000 -1.000000
v 1.835259 0.250000 -0.491756
v 1.931852 0.250000 -0.517638
v 1.900000 0.250000 -0.000000
v 1.931851 0.250000 0.517638
v 2.000000 0.250000 0.000000
v -1.931852 0.250000 0.517638
v -2.000000 0.250000 -0.000000
v -1.835259 0.250000 0.491756
v -1.732051 0.250000 1.000000
v -1.645448 0.250000 0.950000
v -1.414213 0.250000 1.414213
v -1.343503 0.250000 1.343503
v -1.000000 0.250000 1.732051
v -0.950000 0.250000 1.645448
v -0.517638 0.250000 1.931851
v -0.491756 0.250000 1.835259
v -0.000000 0.250000 2.000000
v 0.000000 0.250000 1.900000
v 0.517638 0.250000 1.931852
v 0.491756 0.250000 1.835259
v 0.950000 0.250000 1.645448
v 1.000000 0.250000 1.732051
v 1.343503 0.250000 1.343503
v 1.414213 0.250000 1.414213
v 1.645448 0.250000 0.950000
v 1.732051 0.250000 1.000000
v 1.835259 0.250000 0.491756
v 1.900000 0.250000 -0.000000
v 1.835259 0.250000 0.491756
v 1.931851 0.250000 0.517638
v 1.732051 0.250000 1.000000
v 1.645448 0.250000 0.950000
v 1.414213 0.250000 1.414213
v 1.343503 0.250000 1.343503
v 1.000000 0.250000 1.732051
v 0.950000 0.250000 1.645448
v 0.517638 0.250000 1.931852
v 0.491756 0.250000 1.835259
v 0.000000 0.250000 1.900000
v -0.000000 0.250000 2.000000
v -0.491756 0.250000 1.835259
v -0.517638 0.250000 1.931851
v -0.950000 0.250000 1.645448
v -1.000000 0.250000 1.732051
v -1.343503 0.250000 1.343503
v -1.414213 0.250000 1.414213
v -1.645448 0.250000 0.950000
v -1.732051 0.250000 1.000000
v -1.835259 0.250000 0.491756
v -1.931852 0.250000 0.517638
v -1.900000 0.250000 0.000000
v -1.931851 0.250000 -0.517638
v -2.000000 0.250000 -0.000000
v 2.000000 0.250000 0.000000
v 1.931852 0.250000 -0.517638
v 1.835259 0.250000 -0.491756
v 1.732051 0.250000 -1.000000
v 1.645448 0.250000 -0.950000
v 1.414213 0.250000 -1.414213
v 1.343503 0.250000 -1.343503
v 1.000000 0.250000 -1.732051
v 0.950000 0.250000 -1.645448
v 0.517638 0.250000 -1.931851
v 0.491756 0.250000 -1.835259
v 0.000000 0.250000 -2.000000
v -0.000000 0.250000 -1.900000
v -0.491756 0.250000 -1.835259
v -0.517638 0.250000 -1.931852
v -0.950000 0.250000 -1.645448
v -1.000000 0.250000 -1.732051
v -1.343503 0.250000 -1.343503
v -1.414213 0.250000 -1.414213
v -1.645448 0.250000 -0.950000
v -1.732051 0.250000 -1.000000
v -1.835259 0.250000 -0.491756
v -2.000000 0.250000 -0.000000
v -2.000000 0.000000 -0.000000
v -2.000000 0.250000 -0.000000
v -2.000000 0.000000 -0.000000
v -1.000000 0.250000 -1.732051
v -1.000000 0.000000 -1.732051
v -1.000000 0.250000 -1.732051
v -1.000000 0.000000 -1.732051
v -0.000000 0.250000 -1.900000
v 0.491756 0.050000 -1.835259
v -0.000000 0.050000 -1.900000
v 0.491756 0.250000 -1.835259
v 0.491756 0.250000 -1.835259
v -0.000000 0.250000 -1.900000
v 0.491756 0.050000 -1.835259
v -0.000000 0.050000 -1.900000
v 0.000000 0.000000 -2.000000
v -0.000000 0.050000 -1.900000
v -0.000000 -0.000000 -1.900000
v -0.000000 0.250000 -1.900000
v 0.000000 0.250000 -2.000000
v 0.000000 0.250000 -2.000000
v 0.000000 0.000000 -2.000000
v -0.000000 0.250000 -1.900000
v -0.000000 0.050000 -1.900000
v -0.000000 -0.000000 -1.900000
v 0.517638 0.250000 -1.931851
v 0.000000 0.000000 -2.000000
v 0.517638 0.000000 -1.931851
v 0.000000 0.250000 -2.000000
v 0.000000 0.250000 -2.000000
v 0.517638 0.250000 -1.931851
v 0.000000 0.000000 -2.000000
v 0.517638 0.000000 -1.931851
v 1.000000 0.250000 -1.732051
v 1.000000 0.000000 -1.732051
v 1.000000 0.250000 -1.732051
v 1.000000 0.000000 -1.732051
v 1.414213 0.250000 -1.414213
v 1.414213 0.000000 -1.414213
v 1.414213 0.250000 -1.414213
v 1.414213 0.000000 -1.414213
v 1.732051 0.000000 -1.000000
v 1.732051 0.250000 -1.000000
v 1.732051 0.000000 -1.000000
v 1.732051 0.250000 -1.000000
v 1.931852 0.000000 -0.517638
v 1.931852 0.250000 -0.517638
v 1.931852 0.000000 -0.517638
v 1.931852 0.250000 -0.517638
v 2.000000 0.000000 0.000000
v 2.000000 0.250000 0.000000
v 2.000000 0.000000 0.000000
v 2.000000 0.250000 0.000000
v 1.931851 0.000000 0.517638
v 1.931851 0.250000 0.517638
v 1.931851 0.000000 0.517638
v 1.931851 0.250000 0.517638
v 1.732051 0.000000 1.000000
v 1.732051 0.250000 1.000000
v 1.732051 0.000000 1.000000
v 1.732051 0.250000 1.000000
v 1.414213 0.000000 1.414213
v 1.414213 0.250000 1.414213
v 1.414213 0.000000 1.414213
v 1.414213 0.250000 1.414213
v 1.000000 0.250000 1.732051
v 1.000000 0.000000 1.732051
v 1.000000 0.250000 1.732051
v 1.000000 0.000000 1.732051
v 0.517638 0.250000 1.931852
v 0.517638 0.000000 1.931852
v 0.517638 0.250000 1.931852
v 0.517638 0.000000 1.931852
v -0.000000 0.250000 2.000000
v -0.000000 0.000000 2.000000
v -0.000000 0.250000 2.000000
v -0.000000 0.000000 2.000000
v -0.517638 0.250000 1.931851
v -0.517638 0.000000 1.931851
v -0.517638 0.250000 1.931851
v -0.517638 0.000000 1.931851
v -1.000000 0.250000 1.732051
v -1.000000 0.000000 1.732051
v -1.000000 0.250000 1.732051
v -1.000000 0.000000 1.732051
v -1.414213 0.250000 1.414213
v -1.414213 0.000000 1.414213
v -1.414213 0.250000 1.414213
v -1.414213 0.000000 1.414213
v -1.732051 0.000000 1.000000
v -1.732051 0.250000 1.000000
v -1.732051 0.250000 1.000000
v -1.732051 0.000000 1.000000
v -1.931852 0.000000 0.517638
v -1.931852 0.250000 0.517638
v -1.931852 0.250000 0.517638
v -1.931852 0.000000 0.517638
v -0.517638 0.250000 -1.931852
v -0.517638 0.000000 -1.931852
v -0.517638 0.250000 -1.931852
v -0.517638 0.000000 -1.931852
v -0.517638 0.250000 -1.931852
v -0.491756 0.050000 -1.835259
v -0.491756 0.250000 -1.835259
v -0.491756 -0.000000 -1.835259
v -0.517638 0.000000 -1.931852
v -0.517638 0.000000 -1.931852
v -0.517638 0.250000 -1.931852
v -0.491756 -0.000000 -1.835259
v -0.491756 0.050000 -1.835259
v -0.491756 0.250000 -1.835259
v -0.950000 0.250000 -1.645448
v -0.491756 0.050000 -1.835259
v -0.950000 0.050000 -1.645448
v -0.491756 0.250000 -1.835259
v -0.491756 0.250000 -1.835259
v -0.950000 0.250000 -1.645448
v -0.491756 0.050000 -1.835259
v -0.950000 0.050000 -1.645448
v -1.343503 0.250000 -1.343503
v -1.343503 0.050000 -1.343503
v -1.343503 0.250000 -1.343503
v -1.343503 0.050000 -1.343503
v -1.645448 0.050000 -0.950000
v -1.645448 0.250000 -0.950000
v -1.645448 0.050000 -0.950000
v -1.645448 0.250000 -0.950000
v -1.835259 0.050000 -0.491756
v -1.835259 0.250000 -0.491756
v -1.835259 0.050000 -0.491756
v -1.835259 0.250000 -0.491756
v -1.900000 0.050000 0.000000
v -1.900000 0.250000 0.000000
v -1.900000 0.050000 0.000000
v -1.900000 0.250000 0.000000
v -1.835259 0.050000 0.491756
v -1.835259 0.250000 0.491756
v -1.835259 0.050000 0.491756
v -1.835259 0.250000 0.491756
v -1.645448 0.050000 0.950000
v -1.645448 0.250000 0.950000
v -1.645448 0.050000 0.950000
v -1.645448 0.250000 0.950000
v -1.343503 0.050000 1.343503
v -1.343503 0.250000 1.343503
v -1.343503 0.050000 1.343503
v -1.343503 0.250000 1.343503
v -0.950000 0.250000 1.645448
v -0.950000 0.050000 1.645448
v -0.950000 0.250000 1.645448
v -0.950000 0.050000 1.645448
v -0.491756 0.250000 1.835259
v -0.491756 0.050000 1.835259
v -0.491756 0.250000 1.835259
v -0.491756 0.050000 1.835259
v 0.000000 0.250000 1.900000
v 0.000000 0.050000 1.900000
v 0.000000 0.250000 1.900000
v 0.000000 0.050000 1.900000
v 0.491756 0.250000 1.835259
v 0.491756 0.050000 1.835259
v 0.491756 0.250000 1.835259
v 0.491756 0.050000 1.835259
v 0.950000 0.250000 1.645448
v 0.950000 0.050000 1.645448
v 0.950000 0.250000 1.645448
v 0.950000 0.050000 1.645448
v 1.343503 0.250000 1.343503
v 1.343503 0.050000 1.343503
v 1.343503 0.250000 1.343503
v 1.343503 0.050000 1.343503
v 1.645448 0.050000 0.950000
v 1.645448 0.250000 0.950000
v 1.645448 0.250000 0.950000
v 1.645448 0.050000 0.950000
v 1.835259 0.050000 0.491756
v 1.835259 0.250000 0.491756
v 1.835259 0.250000 0.491756
v 1.835259 0.050000 0.491756
v 1.900000 0.050000 -0.000000
v 1.900000 0.250000 -0.000000
v 1.900000 0.250000 -0.000000
v 1.900000 0.050000 -0.000000
v 1.835259 0.050000 -0.491756
v 1.835259 0.250000 -0.491756
v 1.835259 0.250000 -0.491756
v 1.835259 0.050000 -0.491756
v 1.645448 0.050000 -0.950000
v 1.645448 0.250000 -0.950000
v 1.645448 0.250000 -0.950000
v 1.645448 0.050000 -0.950000
v 1.343503 0.050000 -1.343503
v 1.343503 0.250000 -1.343503
v 1.343503 0.250000 -1.343503
v 1.343503 0.050000 -1.343503
v 0.950000 0.250000 -1.645448
v 0.950000 0.050000 -1.645448
v 0.950000 0.250000 -1.645448
v 0.950000 0.050000 -1.645448
v -0.000000 -0.000000 -1.900000
v -0.061470 0.050000 -0.466907
v -0.061470 -0.000000 -0.466907
v -0.000000 0.050000 -1.900000
v -0.000000 0.050000 -1.900000
v -0.000000 -0.000000 -1.900000
v -0.061470 0.050000 -0.466907
v -0.061470 -0.000000 -0.466907
v -0.491756 0.050000 -1.835259
v -0.061470 -0.000000 -0.466907
v -0.061470 0.050000 -0.466907
v -0.491756 -0.000000 -1.835259
v -0.491756 -0.000000 -1.835259
v -0.491756 0.050000 -1.835259
v -0.061470 -0.000000 -0.466907
v -0.061470 0.050000 -0.466907
vn 0.0000 -1.0000 -0.0000
vn 1.0000 0.0000 0.0000
vn -0.9659 0.0000 0.2588
vn 0.9991 0.0000 0.0429
vn -0.9539 0.0000 0.3000
vn 0.0000 1.0000 -0.0000
vn -1.0000 0.0000 -0.0000
vn 0.9659 0.0000 -0.2588
vn -0.9991 0.0000 -0.0429
vn 0.9539 0.0000 -0.3000
vn 0.8660 0.0000 0.5000
vn 0.9659 0.0000 0.2588
vn 0.7071 0.0000 0.7071
vn 0.5000 0.0000 0.8660
vn 0.1305 0.0000 -0.9914
vn 0.2588 0.0000 -0.9659
vn -0.2588 0.0000 0.9659
vn -0.1305 0.0000 0.9914
vn -0.5000 0.0000 0.8660
vn -0.7071 0.0000 0.7071
vn -0.8660 0.0000 0.5000
vn -0.9659 0.0000 -0.2588
vn -0.8660 0.0000 -0.5000
vn -0.7071 0.0000 -0.7071
vn -0.5000 0.0000 -0.8660
vn -0.2588 0.0000 -0.9659
vn 0.0000 0.0000 -1.0000
vn 0.5000 0.0000 -0.8660
vn 0.7071 0.0000 -0.7071
vn 0.8660 0.0000 -0.5000
vn 0.3827 0.0000 0.9239
vn -0.3827 0.0000 -0.9239
vn 0.0000 0.0000 1.0000
vn 0.2588 0.0000 0.9659
usemtl Material.003
s off
f 13//1 14//1 15//1
f 14//1 13//1 16//1
f 14//1 16//1 17//1
f 17//1 16//1 18//1
f 17//1 18//1 19//1
f 19//1 18//1 20//1
f 19//1 20//1 21//1
f 21//1 20//1 22//1
f 21//1 22//1 23//1
f 24//1 25//1 26//1
f 25//1 24//1 27//1
f 25//1 27//1 28//1
f 28//1 27//1 29//1
f 28//1 29//1 30//1
f 30//1 29//1 31//1
f 30//1 31//1 32//1
f 32//1 31//1 33//1
f 32//1 33//1 34//1
f 34//1 33//1 35//1
f 34//1 35//1 36//1
f 36//1 35//1 37//1
f 37//1 35//1 38//1
f 13//1 39//1 40//1
f 39//1 13//1 15//1
f 39//1 15//1 41//1
f 39//1 41//1 42//1
f 42//1 41//1 43//1
f 42//1 43//1 44//1
f 44//1 43//1 45//1
f 44//1 45//1 46//1
f 46//1 45//1 47//1
f 46//1 47//1 48//1
f 48//1 47//1 49//1
f 48//1 49//1 50//1
f 50//1 49//1 51//1
f 50//1 51//1 52//1
f 52//1 51//1 53//1
f 52//1 53//1 54//1
f 52//1 54//1 55//1
f 55//1 54//1 56//1
f 55//1 56//1 57//1
f 57//1 56//1 58//1
f 57//1 58//1 59//1
f 59//1 58//1 60//1
f 59//1 60//1 37//1
f 37//1 60//1 36//1
f 125//2 126//2 127//2
f 126//2 125//2 128//2
f 128//2 125//2 129//2
f 211//3 212//3 213//3
f 212//3 211//3 214//3
f 214//3 211//3 215//3
f 309//4 310//4 311//4
f 310//4 309//4 312//4
f 317//5 318//5 319//5
f 318//5 317//5 320//5
f 61//6 62//6 63//6
f 63//6 62//6 64//6
f 62//6 65//6 64//6
f 64//6 65//6 66//6
f 65//6 67//6 66//6
f 66//6 67//6 68//6
f 67//6 69//6 68//6
f 68//6 69//6 70//6
f 69//6 71//6 70//6
f 71//6 72//6 70//6
f 70//6 72//6 73//6
f 72//6 74//6 73//6
f 73//6 74//6 75//6
f 74//6 76//6 75//6
f 75//6 76//6 77//6
f 76//6 78//6 77//6
f 77//6 78//6 79//6
f 78//6 80//6 79//6
f 79//6 80//6 81//6
f 80//6 82//6 81//6
f 81//6 82//6 83//6
f 82//6 84//6 83//6
f 84//6 85//6 83//6
f 86//6 83//6 85//6
f 87//6 88//6 63//6
f 63//6 88//6 61//6
f 61//6 88//6 89//6
f 88//6 90//6 89//6
f 89//6 90//6 91//6
f 90//6 92//6 91//6
f 91//6 92//6 93//6
f 92//6 94//6 93//6
f 93//6 94//6 95//6
f 94//6 96//6 95//6
f 95//6 96//6 97//6
f 96//6 98//6 97//6
f 99//6 97//6 98//6
f 100//6 101//6 102//6
f 101//6 103//6 102//6
f 102//6 103//6 104//6
f 103//6 105//6 104//6
f 104//6 105//6 106//6
f 105//6 107//6 106//6
f 106//6 107//6 108//6
f 107//6 85//6 108//6
f 84//6 108//6 85//6
f 130//7 131//7 132//7
f 132//7 131//7 133//7
f 134//7 133//7 131//7
f 216//8 217//8 218//8
f 218//8 217//8 219//8
f 220//8 219//8 217//8
f 313//9 314//9 315//9
f 316//9 315//9 314//9
f 321//10 322//10 323//10
f 324//10 323//10 322//10
s 1
f 1//11 2//12 3//12
f 2//12 1//11 4//11
f 9//13 4//11 1//11
f 4//11 9//13 10//13
f 3//12 109//2 110//2
f 109//2 3//12 2//12
f 113//14 9//13 114//14
f 9//13 113//14 10//13
f 117//15 118//16 119//15
f 118//16 117//15 120//16
f 135//17 136//18 137//17
f 136//18 135//17 138//18
f 143//19 137//17 144//19
f 137//17 143//19 135//17
f 147//20 144//19 148//20
f 144//19 147//20 143//19
f 147//20 151//21 152//21
f 151//21 147//20 148//20
f 152//21 155//3 156//3
f 155//3 152//21 151//21
f 156//3 159//7 160//7
f 159//7 156//3 155//3
f 160//7 163//22 164//22
f 163//22 160//7 159//7
f 164//22 167//23 168//23
f 167//23 164//22 163//22
f 168//23 171//24 172//24
f 171//24 168//23 167//23
f 175//25 171//24 176//25
f 171//24 175//25 172//24
f 179//26 176//25 180//26
f 176//25 179//26 175//25
f 183//27 180//26 184//27
f 180//26 183//27 179//26
f 187//16 184//27 188//16
f 184//27 187//16 183//27
f 191//28 188//16 192//28
f 188//16 191//28 187//16
f 195//29 192//28 196//29
f 192//28 195//29 191//28
f 199//30 195//29 196//29
f 195//29 199//30 200//30
f 203//8 200//30 199//30
f 200//30 203//8 204//8
f 110//2 204//8 203//8
f 204//8 110//2 109//2
f 207//31 114//14 208//31
f 114//14 207//31 113//14
f 221//25 222//32 223//25
f 222//32 221//25 224//32
f 229//24 223//25 230//24
f 223//25 229//24 221//25
f 229//24 233//23 234//23
f 233//23 229//24 230//24
f 234//23 237//22 238//22
f 237//22 234//23 233//23
f 238//22 241//7 242//7
f 241//7 238//22 237//22
f 242//7 245//3 246//3
f 245//3 242//7 241//7
f 246//3 249//21 250//21
f 249//21 246//3 245//3
f 250//21 253//20 254//20
f 253//20 250//21 249//21
f 257//19 253//20 258//19
f 253//20 257//19 254//20
f 261//17 258//19 262//17
f 258//19 261//17 257//19
f 265//33 262//17 266//33
f 262//17 265//33 261//17
f 269//34 266//33 270//34
f 266//33 269//34 265//33
f 273//14 270//34 274//14
f 270//34 273//14 269//34
f 277//13 274//14 278//13
f 274//14 277//13 273//14
f 281//11 277//13 278//13
f 277//13 281//11 282//11
f 285//12 282//11 281//11
f 282//11 285//12 286//12
f 289//2 286//12 285//12
f 286//12 289//2 290//2
f 293//8 290//2 289//2
f 290//2 293//8 294//8
f 297//30 294//8 293//8
f 294//8 297//30 298//30
f 301//29 298//30 297//30
f 298//30 301//29 302//29
f 305//28 301//29 306//28
f 301//29 305//28 302//29
f 120//16 306//28 118//16
f 306//28 120//16 305//28
f 5//23 6//23 7//22
f 8//22 7//22 6//23
f 11//24 12//24 5//23
f 6//23 5//23 12//24
f 7//22 8//22 111//7
f 112//7 111//7 8//22
f 11//24 115//25 12//24
f 116//25 12//24 115//25
f 121//17 122//18 123//17
f 124//18 123//17 122//18
f 139//15 140//16 141//15
f 142//16 141//15 140//16
f 140//16 145//28 142//16
f 146//28 142//16 145//28
f 145//28 149//29 146//28
f 150//29 146//28 149//29
f 150//29 149//29 153//30
f 154//30 153//30 149//29
f 153//30 154//30 157//8
f 158//8 157//8 154//30
f 157//8 158//8 161//2
f 162//2 161//2 158//8
f 161//2 162//2 165//12
f 166//12 165//12 162//2
f 165//12 166//12 169//11
f 170//11 169//11 166//12
f 169//11 170//11 173//13
f 174//13 173//13 170//11
f 174//13 177//14 173//13
f 178//14 173//13 177//14
f 177//14 181//34 178//14
f 182//34 178//14 181//34
f 181//34 185//33 182//34
f 186//33 182//34 185//33
f 185//33 189//17 186//33
f 190//17 186//33 189//17
f 189//17 193//19 190//17
f 194//19 190//17 193//19
f 193//19 197//20 194//19
f 198//20 194//19 197//20
f 201//21 202//21 197//20
f 198//20 197//20 202//21
f 205//3 206//3 201//21
f 202//21 201//21 206//3
f 111//7 112//7 205//3
f 206//3 205//3 112//7
f 115//25 209//32 116//25
f 210//32 116//25 209//32
f 225//31 226//14 227//31
f 228//14 227//31 226//14
f 226//14 231//13 228//14
f 232//13 228//14 231//13
f 232//13 231//13 235//11
f 236//11 235//11 231//13
f 235//11 236//11 239//12
f 240//12 239//12 236//11
f 239//12 240//12 243//2
f 244//2 243//2 240//12
f 243//2 244//2 247//8
f 248//8 247//8 244//2
f 247//8 248//8 251//30
f 252//30 251//30 248//8
f 251//30 252//30 255//29
f 256//29 255//29 252//30
f 256//29 259//28 255//29
f 260//28 255//29 259//28
f 259//28 263//16 260//28
f 264//16 260//28 263//16
f 263//16 267//27 264//16
f 268//27 264//16 267//27
f 267//27 271//26 268//27
f 272//26 268//27 271//26
f 271//26 275//25 272//26
f 276//25 272//26 275//25
f 275//25 279//24 276//25
f 280//24 276//25 279//24
f 283//23 284//23 279//24
f 280//24 279//24 284//23
f 287//22 288//22 283//23
f 284//23 283//23 288//22
f 291//7 292//7 287//22
f 288//22 287//22 292//7
f 295//3 296//3 291//7
f 292//7 291//7 296//3
f 299//21 300//21 295//3
f 296//3 295//3 300//21
f 303//20 304//20 299//21
f 300//21 299//21 304//20
f 303//20 307//19 304//20
f 308//19 304//20 307//19
f 307//19 121//17 308//19
f 123//17 308//19 121//17
o SketchUp.001_ID12
v -1.835259 0.050000 -0.491756
v -1.835259 0.050000 0.491756
v -1.900000 0.050000 0.000000
v -1.645448 0.050000 -0.950000
v -1.645448 0.050000 0.950000
v -1.343503 0.050000 -1.343503
v -1.343503 0.050000 1.343503
v -0.950000 0.050000 -1.645448
v -0.950000 0.050000 1.645448
v -0.491756 0.050000 -1.835259
v -0.491756 0.050000 1.835259
v -0.061470 0.050000 -0.466907
v 0.000000 0.050000 1.900000
v -0.000000 0.050000 -1.900000
v 0.491756 0.050000 -1.835259
v 0.491756 0.050000 1.835259
v 0.950000 0.050000 -1.645448
v 0.950000 0.050000 1.645448
v 1.343503 0.050000 -1.343503
v 1.343503 0.050000 1.343503
v 1.645448 0.050000 -0.950000
v 1.645448 0.050000 0.950000
v 1.835259 0.050000 -0.491756
v 1.835259 0.050000 0.491756
v 1.900000 0.050000 -0.000000
v 1.900000 0.050000 -0.000000
v 1.835259 0.050000 -0.491756
v 1.835259 0.050000 0.491756
v 1.645448 0.050000 0.950000
v 1.645448 0.050000 -0.950000
v 1.343503 0.050000 1.343503
v 1.343503 0.050000 -1.343503
v 0.950000 0.050000 1.645448
v 0.950000 0.050000 -1.645448
v 0.491756 0.050000 1.835259
v 0.491756 0.050000 -1.835259
v 0.000000 0.050000 1.900000
v -0.000000 0.050000 -1.900000
v -0.061470 0.050000 -0.466907
v -0.491756 0.050000 1.835259
v -0.491756 0.050000 -1.835259
v -0.950000 0.050000 1.645448
v -0.950000 0.050000 -1.645448
v -1.343503 0.050000 1.343503
v -1.343503 0.050000 -1.343503
v -1.645448 0.050000 0.950000
v -1.645448 0.050000 -0.950000
v -1.835259 0.050000 0.491756
v -1.835259 0.050000 -0.491756
v -1.900000 0.050000 0.000000
vn 0.0000 -1.0000 0.0000
vn 0.0000 1.0000 0.0000
usemtl Material.002
s off
f 325//35 326//35 327//35
f 326//35 325//35 328//35
f 326//35 328//35 329//35
f 329//35 328//35 330//35
f 329//35 330//35 331//35
f 331//35 330//35 332//35
f 331//35 332//35 333//35
f 333//35 332//35 334//35
f 333//35 334//35 335//35
f 335//35 334//35 336//35
f 335//35 336//35 337//35
f 337//35 336//35 338//35
f 337//35 338//35 339//35
f 337//35 339//35 340//35
f 340//35 339//35 341//35
f 340//35 341//35 342//35
f 342//35 341//35 343//35
f 342//35 343//35 344//35
f 344//35 343//35 345//35
f 344//35 345//35 346//35
f 346//35 345//35 347//35
f 346//35 347//35 348//35
f 348//35 347//35 349//35
f 350//36 351//36 352//36
f 352//36 351//36 353//36
f 351//36 354//36 353//36
f 353//36 354//36 355//36
f 354//36 356//36 355//36
f 355//36 356//36 357//36
f 356//36 358//36 357//36
f 357//36 358//36 359//36
f 358//36 360//36 359//36
f 359//36 360//36 361//36
f 360//36 362//36 361//36
f 362//36 363//36 361//36
f 361//36 363//36 364//36
f 363//36 365//36 364//36
f 364//36 365//36 366//36
f 365//36 367//36 366//36
f 366//36 367//36 368//36
f 367//36 369//36 368//36
f 368//36 369//36 370//36
f 369//36 371//36 370//36
f 370//36 371//36 372//36
f 371//36 373//36 372//36
f 374//36 372//36 373//36
